SplineFontDB: 3.0
FontName: NokyungTestDA
FullName: NokyungTestDA
FamilyName: NokyungTestDA
Weight: Normal
Copyright: Copyright (c) 2008-2015 SIL International
Version: 0
ItalicAngle: 0
UnderlinePosition: -113
UnderlineWidth: 20
Ascent: 1650
Descent: 398
InvalidEm: 0
UFOAscent: 1650
UFODescent: -398
LayerCount: 2
Layer: 0 0 "Back" 1
Layer: 1 0 "Fore" 0
FSType: 0
OS2Version: 0
OS2_WeightWidthSlopeOnly: 0
OS2_UseTypoMetrics: 0
CreationTime: 1423575063
ModificationTime: 1427329752
PfmFamily: 16
TTFWeight: 400
TTFWidth: 5
LineGap: 0
VLineGap: 0
Panose: 2 0 4 0 0 0 0 0 0 0
OS2TypoAscent: 1700
OS2TypoAOffset: 0
OS2TypoDescent: -750
OS2TypoDOffset: 0
OS2TypoLinegap: 0
OS2WinAscent: 1700
OS2WinAOffset: 0
OS2WinDescent: 750
OS2WinDOffset: 0
HheadAscent: 1700
HheadAOffset: 0
HheadDescent: -750
HheadDOffset: 0
OS2SubXSize: 1331
OS2SubYSize: 1228
OS2SubXOff: 0
OS2SubYOff: 153
OS2SupXSize: 1331
OS2SupYSize: 1228
OS2SupXOff: 0
OS2SupYOff: 716
OS2StrikeYSize: 20
OS2StrikeYPos: 543
OS2Vendor: 'SIL '
OS2CodePages: 00000001.00000000
OS2UnicodeRanges: 00000001.00000000.80000000.00000000
DEI: 91125

StartChar: .notdef
Encoding: 65536 -1 0
GlifName: _notdef
Width: 1024
VWidth: 0
Flags: W
LayerCount: 2
Back
Fore
SplineSet
896 0 m 257
 128 0 l 257
 128 1400 l 257
 896 1400 l 257
 896 0 l 257
256 1272 m 257
 256 128 l 257
 768 128 l 257
 768 1272 l 257
 256 1272 l 257
EndSplineSet
EndChar

StartChar: exclam
Encoding: 33 33 4
GlifName: exclam
Width: 412
VWidth: 0
GlyphClass: 2
Flags: W
LayerCount: 2
Back
Fore
SplineSet
160 103 m 256
 160 175 204 220 276 220 c 256
 350 220 399 175 399 103 c 256
 399 30 350 -19 276 -19 c 256
 204 -19 160 30 160 103 c 256
311 315 m 258
 310 305 304 295 293 295 c 258
 263 295 l 258
 254 295 247 305 246 315 c 258
 246 315 186 713 166 850 c 256
 156 921 204 970 276 970 c 256
 350 970 401 921 391 850 c 256
 371 713 311 315 311 315 c 258
EndSplineSet
EndChar

StartChar: quotedbl
Encoding: 34 34 5
GlifName: quotedbl
Width: 909
VWidth: 0
GlyphClass: 2
Flags: W
LayerCount: 2
Back
Fore
SplineSet
358 1339 m 256
 358 1317 350 1255 334 1154 c 258
 283 830 l 258
 282 822 272 818 255 819 c 256
 238 819 229 823 228 830 c 258
 180 1154 l 258
 163 1271 154 1328 154 1323 c 257
 154 1412 188 1457 257 1457 c 256
 324 1457 358 1418 358 1339 c 256
748 1339 m 256
 748 1317 740 1255 724 1154 c 258
 673 830 l 258
 672 822 662 818 645 819 c 256
 628 819 619 823 618 830 c 258
 570 1154 l 258
 553 1271 544 1328 544 1323 c 257
 544 1412 578 1457 647 1457 c 256
 714 1457 748 1418 748 1339 c 256
EndSplineSet
EndChar

StartChar: quotesingle
Encoding: 39 39 6
GlifName: quotesingle
Width: 412
VWidth: 0
GlyphClass: 2
Flags: W
LayerCount: 2
Back
Fore
SplineSet
308 1339 m 256
 308 1317 300 1255 284 1154 c 258
 233 830 l 258
 232 822 222 818 205 819 c 256
 188 819 179 823 178 830 c 258
 130 1154 l 258
 113 1271 104 1328 104 1323 c 257
 104 1412 138 1457 207 1457 c 256
 274 1457 308 1418 308 1339 c 256
EndSplineSet
EndChar

StartChar: parenleft
Encoding: 40 40 7
GlifName: parenleft
Width: 705
VWidth: 0
GlyphClass: 2
Flags: W
LayerCount: 2
Back
Fore
SplineSet
808 -615 m 256
 785 -632 742 -628 681 -601 c 256
 538 -540 420 -427 328 -264 c 256
 217 -67 161 178 161 473 c 256
 161 1011 334 1377 681 1571 c 256
 742 1605 785 1615 808 1602 c 256
 810 1601 811 1599 811 1597 c 256
 811 1586 785 1567 734 1540 c 256
 634 1488 543 1380 460 1215 c 256
 355 1006 303 761 303 482 c 256
 303 201 354 -43 457 -249 c 256
 541 -417 633 -521 734 -560 c 256
 785 -580 811 -596 811 -609 c 256
 811 -612 810 -614 808 -615 c 256
EndSplineSet
EndChar

StartChar: parenright
Encoding: 41 41 8
GlifName: parenright
Width: 705
VWidth: 0
GlyphClass: 2
Flags: W
LayerCount: 2
Back
Fore
SplineSet
544 548 m 256
 544 10 371 -356 24 -550 c 256
 -37 -584 -80 -594 -103 -581 c 256
 -105 -580 -106 -578 -106 -576 c 256
 -106 -565 -81 -546 -30 -519 c 256
 70 -467 161 -359 244 -194 c 256
 349 15 401 259 401 538 c 256
 401 820 350 1064 247 1269 c 257
 164 1438 72 1542 -29 1581 c 256
 -81 1602 -107 1618 -107 1630 c 256
 -107 1633 -106 1635 -104 1636 c 256
 -81 1653 -38 1649 24 1622 c 256
 167 1561 285 1448 377 1285 c 256
 488 1088 544 843 544 548 c 256
EndSplineSet
EndChar

StartChar: asterisk
Encoding: 42 42 9
GlifName: asterisk
Width: 1025
VWidth: 0
GlyphClass: 2
Flags: W
LayerCount: 2
Back
Fore
SplineSet
930 1257 m 256
 940 1227 945 1208 945 1200 c 256
 945 1189 937 1182 922 1177 c 256
 889 1166 831 1155 748 1142 c 256
 676 1131 619 1117 577 1099 c 257
 600 1060 638 1015 690 962 c 256
 748 903 787 860 808 831 c 256
 814 822 817 816 817 811 c 256
 817 802 802 787 771 765 c 256
 741 743 722 732 714 732 c 256
 707 732 700 737 693 747 c 256
 672 776 643 827 606 902 c 256
 573 967 542 1017 512 1052 c 257
 482 1017 450 967 417 902 c 257
 378 829 349 778 328 749 c 256
 321 739 314 734 307 734 c 256
 299 734 281 744 254 763 c 257
 221 788 204 804 204 813 c 256
 204 818 207 825 213 833 c 256
 234 861 274 904 334 963 c 256
 386 1014 424 1060 447 1099 c 257
 405 1116 348 1131 275 1143 c 256
 194 1157 136 1169 102 1180 c 256
 87 1185 80 1192 80 1203 c 256
 80 1211 84 1228 93 1255 c 256
 107 1297 120 1318 131 1318 c 256
 135 1318 140 1317 146 1315 c 256
 179 1304 233 1280 307 1241 c 256
 372 1207 427 1185 472 1175 c 257
 473 1188 473 1202 473 1216 c 256
 473 1252 468 1304 458 1371 c 256
 448 1439 443 1491 443 1528 c 256
 443 1545 450 1556 465 1559 c 256
 468 1560 483 1560 511 1560 c 258
 559 1560 l 257
 576 1557 585 1546 585 1528 c 256
 585 1491 579 1439 567 1372 c 256
 556 1305 550 1255 550 1220 c 256
 550 1205 551 1190 552 1175 c 257
 596 1186 651 1207 717 1240 c 256
 791 1277 845 1301 878 1312 c 256
 885 1314 890 1315 894 1315 c 256
 905 1315 917 1296 930 1257 c 256
EndSplineSet
EndChar

StartChar: comma
Encoding: 44 44 10
GlifName: comma
Width: 766
VWidth: 0
GlyphClass: 2
Flags: W
LayerCount: 2
Back
Fore
SplineSet
160 134 m 256
 160 225 215 281 306 281 c 256
 399 281 460 225 460 134 c 256
 460 -62 382 -183 214 -241 c 256
 205 -244 199 -242 195 -233 c 258
 181 -193 l 257
 179 -184 178 -174 188 -170 c 256
 279 -137 349 -68 366 10 c 257
 352 -6 326 -19 286 -19 c 256
 225 -19 160 43 160 134 c 256
EndSplineSet
EndChar

StartChar: hyphen
Encoding: 45 45 11
GlifName: hyphen
Width: 635
VWidth: 0
GlyphClass: 2
Flags: W
LayerCount: 2
Back
Fore
SplineSet
517 551 m 256
 517 520 508 505 490 505 c 258
 144 505 l 258
 127 505 118 520 118 551 c 256
 118 580 128 594 147 594 c 258
 488 594 l 258
 507 594 517 580 517 551 c 256
EndSplineSet
EndChar

StartChar: period
Encoding: 46 46 12
GlifName: period
Width: 766
VWidth: 0
GlyphClass: 2
Flags: W
LayerCount: 2
Back
Fore
SplineSet
160 134 m 256
 160 225 215 281 306 281 c 256
 399 281 460 225 460 134 c 256
 460 43 399 -19 306 -19 c 256
 215 -19 160 43 160 134 c 256
EndSplineSet
EndChar

StartChar: slash
Encoding: 47 47 13
GlifName: slash
Width: 633
VWidth: 0
GlyphClass: 2
Flags: W
LayerCount: 2
Back
Fore
SplineSet
653 1564 m 258
 122 -16 l 258
 118 -29 97 -35 59 -35 c 256
 21 -35 4 -29 8 -16 c 258
 544 1564 l 258
 549 1577 569 1584 605 1584 c 256
 642 1584 658 1577 653 1564 c 258
EndSplineSet
EndChar

StartChar: colon
Encoding: 58 58 14
GlifName: colon
Width: 699
VWidth: 0
GlyphClass: 2
Flags: W
LayerCount: 2
Back
Fore
SplineSet
160 103 m 256
 160 175 204 220 276 220 c 256
 350 220 399 175 399 103 c 256
 399 30 350 -19 276 -19 c 256
 204 -19 160 30 160 103 c 256
160 473 m 256
 160 545 204 590 276 590 c 256
 350 590 399 545 399 473 c 256
 399 400 350 351 276 351 c 256
 204 351 160 400 160 473 c 256
EndSplineSet
EndChar

StartChar: semicolon
Encoding: 59 59 15
GlifName: semicolon
Width: 407
VWidth: 0
GlyphClass: 2
Flags: W
LayerCount: 2
Back
Fore
SplineSet
293 709 m 256
 293 634 252 583 200 583 c 256
 147 583 108 636 108 709 c 256
 108 747 118 777 137 800 c 256
 154 821 175 831 200 831 c 256
 248 831 293 781 293 709 c 256
316 3 m 256
 316 -99 285 -196 222 -287 c 256
 171 -362 132 -400 106 -400 c 257
 102 -397 l 257
 101 -394 114 -376 140 -341 c 256
 173 -298 199 -256 217 -217 c 256
 245 -157 259 -96 259 -35 c 256
 259 -4 252 12 239 12 c 256
 237 12 229 7 215 -2 c 257
 202 -12 190 -17 181 -17 c 256
 158 -17 138 -5 121 20 c 256
 104 45 96 74 96 107 c 256
 96 142 107 172 128 195 c 256
 147 215 169 225 192 225 c 256
 275 225 316 151 316 3 c 256
EndSplineSet
EndChar

StartChar: question
Encoding: 63 63 16
GlifName: question
Width: 720
VWidth: 0
GlyphClass: 2
Flags: W
LayerCount: 2
Back
Fore
SplineSet
624 722 m 256
 623 655 605 598 570 551 c 256
 545 518 512 490 471 469 c 257
 412 441 l 257
 407 436 405 401 404 337 c 256
 403 280 404 241 406 221 c 256
 407 213 402 208 392 205 c 256
 386 204 378 203 367 203 c 256
 350 203 341 203 338 204 c 256
 327 206 320 211 318 220 c 256
 315 233 316 279 319 357 c 256
 322 436 327 479 332 486 c 257
 365 504 397 522 429 541 c 257
 490 586 520 645 520 717 c 256
 520 771 505 816 474 852 c 256
 446 885 414 901 379 901 c 256
 296 901 237 850 203 747 c 256
 198 731 178 733 143 753 c 256
 106 775 92 793 101 807 c 256
 172 914 266 968 382 968 c 256
 447 968 502 947 549 904 c 256
 600 857 625 797 624 722 c 256
434 52 m 256
 434 15 404 -17 367 -17 c 256
 331 -17 302 15 302 52 c 256
 302 91 328 128 363 128 c 256
 410 128 434 103 434 52 c 256
EndSplineSet
EndChar

StartChar: bracketleft
Encoding: 91 91 17
GlifName: bracketleft
Width: 677
VWidth: 0
GlyphClass: 2
Flags: W
LayerCount: 2
Back
Fore
SplineSet
613 -355 m 257
 613 -441 l 257
 245 -441 l 257
 245 1533 l 257
 613 1533 l 257
 613 1448 l 257
 370 1448 l 257
 370 -355 l 257
 613 -355 l 257
EndSplineSet
EndChar

StartChar: backslash
Encoding: 92 92 18
GlifName: backslash
Width: 556
VWidth: 0
GlyphClass: 2
Flags: W
LayerCount: 2
Back
Fore
SplineSet
197 1554 m 258
 593 -5 l 258
 596 -18 580 -25 544 -25 c 256
 509 -25 490 -18 487 -5 c 258
 87 1554 l 258
 84 1567 101 1574 140 1574 c 256
 175 1574 194 1567 197 1554 c 258
EndSplineSet
EndChar

StartChar: bracketright
Encoding: 93 93 19
GlifName: bracketright
Width: 677
VWidth: 0
GlyphClass: 2
Flags: W
LayerCount: 2
Back
Fore
SplineSet
430 1533 m 257
 430 -444 l 257
 64 -444 l 257
 64 -355 l 257
 305 -355 l 257
 305 1448 l 257
 64 1448 l 257
 64 1533 l 257
 430 1533 l 257
EndSplineSet
EndChar

StartChar: asciicircum
Encoding: 94 94 20
GlifName: asciicircum
Width: 1970
VWidth: 0
GlyphClass: 2
Flags: W
LayerCount: 2
Back
Fore
SplineSet
1046 1202 m 257
 1499 20 l 257
 1377 20 l 257
 985 1076 l 257
 593 20 l 257
 471 20 l 257
 924 1202 l 257
 1046 1202 l 257
EndSplineSet
EndChar

StartChar: underscore
Encoding: 95 95 21
GlifName: underscore
Width: 985
VWidth: 0
GlyphClass: 2
Flags: W
LayerCount: 2
Back
Fore
SplineSet
985 -158 m 257
 985 -231 l 257
 0 -231 l 257
 0 -158 l 257
 985 -158 l 257
EndSplineSet
EndChar

StartChar: braceleft
Encoding: 123 123 22
GlifName: braceleft
Width: 1089
VWidth: 0
GlyphClass: 2
Flags: W
LayerCount: 2
Back
Fore
SplineSet
840 -451 m 257
 840 -491 l 257
 732 -480 640 -434 564 -353 c 256
 486 -270 447 -174 447 -64 c 256
 447 -23 455 36 472 113 c 256
 489 190 497 243 497 274 c 256
 497 339 468 396 410 444 c 256
 360 485 304 510 243 517 c 257
 243 574 l 257
 304 581 359 605 409 646 c 256
 468 693 497 749 497 813 c 256
 497 845 489 902 472 983 c 256
 455 1064 447 1127 447 1170 c 256
 447 1275 487 1368 566 1449 c 257
 643 1526 735 1571 840 1582 c 257
 840 1543 l 257
 667 1500 581 1402 581 1249 c 256
 581 1214 589 1162 605 1095 c 256
 622 1028 630 976 630 940 c 256
 630 743 539 612 357 546 c 257
 539 480 630 347 630 147 c 256
 630 112 622 61 605 -6 c 256
 589 -73 581 -123 581 -158 c 256
 581 -310 667 -408 840 -451 c 257
EndSplineSet
EndChar

StartChar: bar
Encoding: 124 124 23
GlifName: bar
Width: 456
VWidth: 0
GlyphClass: 2
Flags: W
LayerCount: 2
Back
Fore
SplineSet
275 1582 m 257
 275 -493 l 257
 181 -493 l 257
 181 1582 l 257
 275 1582 l 257
EndSplineSet
EndChar

StartChar: braceright
Encoding: 125 125 24
GlifName: braceright
Width: 1089
VWidth: 0
GlyphClass: 2
Flags: W
LayerCount: 2
Back
Fore
SplineSet
839 574 m 257
 839 517 l 257
 778 510 722 485 672 444 c 256
 614 396 585 339 585 274 c 256
 585 243 593 190 610 113 c 256
 627 36 636 -23 636 -64 c 256
 636 -174 597 -270 520 -351 c 256
 443 -433 351 -480 243 -491 c 257
 243 -451 l 257
 415 -408 501 -310 501 -158 c 256
 501 -123 493 -73 477 -6 c 256
 461 61 453 112 453 147 c 256
 453 347 544 480 725 546 c 257
 544 612 453 743 453 940 c 256
 453 976 461 1028 477 1095 c 256
 493 1162 501 1214 501 1249 c 256
 501 1402 415 1500 243 1543 c 257
 243 1582 l 257
 348 1571 440 1526 517 1449 c 257
 596 1368 636 1275 636 1170 c 256
 636 1127 627 1064 610 983 c 256
 593 902 585 845 585 813 c 256
 585 749 614 693 673 646 c 256
 723 605 778 581 839 574 c 257
EndSplineSet
EndChar

StartChar: asciitilde
Encoding: 126 126 25
GlifName: asciitilde
Width: 1115
VWidth: 0
GlyphClass: 2
Flags: W
LayerCount: 2
Back
Fore
SplineSet
1019 705 m 257
 1076 630 l 257
 999 485 905 412 794 412 c 256
 740 412 658 437 548 486 c 256
 438 535 360 560 313 560 c 256
 265 560 221 539 181 496 c 256
 160 473 131 431 95 370 c 257
 39 443 l 257
 80 518 117 571 150 604 c 256
 201 655 258 680 323 680 c 256
 373 680 457 655 575 604 c 256
 694 553 770 528 804 528 c 256
 888 528 960 587 1019 705 c 257
EndSplineSet
EndChar

StartChar: ellipsis
Encoding: 8230 8230 26
GlifName: ellipsis
Width: 1517
VWidth: 0
GlyphClass: 2
Flags: W
LayerCount: 2
Back
Fore
SplineSet
281 108 m 256
 281 33 240 -18 188 -18 c 256
 135 -18 96 35 96 108 c 256
 96 146 106 176 125 199 c 256
 142 220 163 230 188 230 c 256
 236 230 281 180 281 108 c 256
848 108 m 256
 848 33 807 -18 755 -18 c 256
 702 -18 663 35 663 108 c 256
 663 146 673 176 692 199 c 256
 709 220 730 230 755 230 c 256
 803 230 848 180 848 108 c 256
1421 108 m 256
 1421 33 1380 -18 1328 -18 c 256
 1275 -18 1236 35 1236 108 c 256
 1236 146 1246 176 1265 199 c 256
 1282 220 1303 230 1328 230 c 256
 1376 230 1421 180 1421 108 c 256
EndSplineSet
EndChar

StartChar: guilsinglleft
Encoding: 8249 8249 27
GlifName: guilsinglleft
Width: 758
VWidth: 0
GlyphClass: 2
Flags: W
LayerCount: 2
Back
Fore
SplineSet
351 478 m 257
 622 -48 l 257
 563 -48 l 257
 131 478 l 257
 563 999 l 257
 622 999 l 257
 351 478 l 257
EndSplineSet
EndChar

StartChar: quoteleft
Encoding: 8216 8216 28
GlifName: quoteleft
Width: 407
VWidth: 0
GlyphClass: 2
Flags: W
LayerCount: 2
Back
Fore
SplineSet
297 922 m 256
 297 887 286 858 265 835 c 256
 246 815 225 805 202 805 c 256
 119 805 78 879 78 1026 c 256
 78 1128 109 1225 172 1316 c 256
 223 1391 262 1429 288 1429 c 257
 292 1426 l 257
 293 1423 280 1405 254 1370 c 256
 221 1327 195 1286 177 1247 c 256
 149 1187 135 1126 135 1065 c 256
 135 1034 142 1018 155 1018 c 256
 157 1018 165 1023 178 1032 c 256
 192 1041 204 1046 213 1046 c 256
 236 1046 255 1034 272 1009 c 256
 289 984 297 955 297 922 c 256
EndSplineSet
EndChar

StartChar: quoteright
Encoding: 8217 8217 29
GlifName: quoteright
Width: 407
VWidth: 0
GlyphClass: 2
Flags: W
LayerCount: 2
Back
Fore
SplineSet
316 1234 m 256
 316 1132 285 1035 222 944 c 256
 171 869 132 831 106 831 c 257
 102 834 l 257
 101 837 114 855 140 890 c 256
 173 933 199 974 217 1013 c 256
 245 1073 259 1134 259 1195 c 256
 259 1226 252 1242 239 1242 c 256
 237 1242 229 1237 215 1227 c 256
 202 1218 190 1213 181 1213 c 256
 158 1213 138 1225 121 1250 c 256
 104 1275 96 1305 96 1338 c 256
 96 1373 107 1402 128 1425 c 256
 147 1445 168 1455 192 1455 c 256
 275 1455 316 1381 316 1234 c 256
EndSplineSet
EndChar

StartChar: quotedblleft
Encoding: 8220 8220 30
GlifName: quotedblleft
Width: 760
VWidth: 0
GlyphClass: 2
Flags: W
LayerCount: 2
Back
Fore
SplineSet
316 922 m 256
 316 887 305 858 284 835 c 256
 265 815 244 805 221 805 c 256
 138 805 97 879 97 1026 c 256
 97 1128 128 1225 191 1316 c 256
 242 1391 281 1429 307 1429 c 257
 311 1426 l 257
 312 1423 299 1405 273 1370 c 256
 240 1327 214 1286 196 1247 c 256
 168 1187 154 1126 154 1065 c 256
 154 1034 161 1018 174 1018 c 256
 176 1018 184 1023 197 1032 c 256
 211 1041 223 1046 232 1046 c 256
 255 1046 274 1034 291 1009 c 256
 308 984 316 955 316 922 c 256
663 922 m 256
 663 887 652 858 631 835 c 256
 612 815 591 805 567 805 c 256
 484 805 443 879 443 1026 c 256
 443 1128 474 1225 537 1316 c 256
 588 1391 627 1429 653 1429 c 257
 657 1426 l 257
 658 1423 645 1405 619 1370 c 256
 586 1327 560 1286 542 1247 c 256
 514 1187 500 1126 500 1065 c 256
 500 1034 507 1018 520 1018 c 256
 522 1018 530 1023 543 1032 c 256
 557 1041 569 1046 578 1046 c 256
 601 1046 620 1033 637 1008 c 256
 654 983 663 955 663 922 c 256
EndSplineSet
EndChar

StartChar: quotedblright
Encoding: 8221 8221 31
GlifName: quotedblright
Width: 749
VWidth: 0
GlyphClass: 2
Flags: W
LayerCount: 2
Back
Fore
SplineSet
316 1233 m 256
 316 1131 285 1034 222 942 c 256
 171 867 132 829 106 829 c 257
 102 832 l 257
 101 835 114 853 140 888 c 256
 173 931 199 973 217 1012 c 256
 245 1072 259 1133 259 1194 c 256
 259 1225 252 1241 239 1241 c 256
 237 1241 229 1236 215 1226 c 256
 202 1217 190 1212 181 1212 c 256
 158 1212 138 1224 121 1249 c 256
 104 1274 96 1303 96 1336 c 256
 96 1371 107 1401 128 1424 c 256
 147 1444 169 1454 192 1454 c 256
 275 1454 316 1380 316 1233 c 256
663 1232 m 256
 663 1130 632 1033 569 941 c 256
 518 866 479 828 453 828 c 257
 449 831 l 257
 448 834 461 852 487 887 c 256
 520 930 546 972 564 1011 c 256
 592 1071 606 1132 606 1193 c 256
 606 1224 599 1240 586 1240 c 256
 584 1240 576 1235 562 1225 c 256
 549 1216 537 1211 528 1211 c 256
 505 1211 485 1223 468 1248 c 256
 451 1273 443 1302 443 1335 c 256
 443 1370 454 1400 475 1423 c 256
 494 1443 516 1453 539 1453 c 256
 622 1453 663 1379 663 1232 c 256
EndSplineSet
EndChar

StartChar: bullet
Encoding: 8226 8226 32
GlifName: bullet
Width: 659
VWidth: 0
GlyphClass: 2
Flags: W
LayerCount: 2
Back
Fore
SplineSet
469 762 m 256
 469 707 455 661 428 626 c 256
 401 591 367 573 328 573 c 256
 289 573 256 591 229 626 c 257
 203 662 190 707 190 762 c 256
 190 819 205 864 234 899 c 256
 260 930 291 945 328 945 c 256
 364 945 396 929 424 896 c 256
 454 861 469 816 469 762 c 256
EndSplineSet
EndChar

StartChar: endash
Encoding: 8211 8211 33
GlifName: endash
Width: 688
VWidth: 0
GlyphClass: 2
Flags: W
LayerCount: 2
Back
Fore
SplineSet
570 551 m 256
 570 524 565 509 555 506 c 256
 552 505 549 505 544 505 c 258
 144 505 l 258
 125 505 118 507 118 551 c 256
 118 580 128 594 147 594 c 258
 542 594 l 258
 561 594 570 580 570 551 c 256
EndSplineSet
EndChar

StartChar: emdash
Encoding: 8212 8212 34
GlifName: emdash
Width: 1332
VWidth: 0
GlyphClass: 2
Flags: W
LayerCount: 2
Back
Fore
SplineSet
1215 553 m 256
 1215 522 1206 507 1188 507 c 258
 144 507 l 258
 127 507 118 522 118 552 c 256
 118 577 123 590 132 593 c 256
 135 594 140 595 147 595 c 258
 1186 595 l 258
 1209 595 1215 589 1215 553 c 256
EndSplineSet
EndChar

StartChar: guilsinglright
Encoding: 8250 8250 35
GlifName: guilsinglright
Width: 758
VWidth: 0
GlyphClass: 2
Flags: W
LayerCount: 2
Back
Fore
SplineSet
195 999 m 257
 627 473 l 257
 195 -48 l 257
 136 -48 l 257
 408 473 l 257
 136 999 l 257
 195 999 l 257
EndSplineSet
EndChar

StartChar: uni00AD
Encoding: 173 173 37
GlifName: uni00A_D_
Width: 635
VWidth: 0
GlyphClass: 2
Flags: W
LayerCount: 2
Back
Fore
SplineSet
517 551 m 256
 517 520 508 505 490 505 c 258
 144 505 l 258
 127 505 118 520 118 551 c 256
 118 580 128 594 147 594 c 258
 488 594 l 258
 507 594 517 580 517 551 c 256
EndSplineSet
EndChar

StartChar: periodcentered
Encoding: 183 183 38
GlifName: periodcentered
Width: 378
VWidth: 0
GlyphClass: 2
Flags: W
LayerCount: 2
Back
Fore
SplineSet
281 748 m 256
 281 673 240 622 188 622 c 256
 135 622 96 675 96 748 c 256
 96 786 106 816 125 839 c 256
 142 860 163 870 188 870 c 256
 236 870 281 820 281 748 c 256
EndSplineSet
EndChar

StartChar: dailuemodifierw
Encoding: 65539 -1 39
GlifName: dailuemodifierw
Width: 0
VWidth: 0
GlyphClass: 2
Flags: HW
LayerCount: 2
Back
SplineSet
-950 -485 m 256
 -950 -570 -850 -595 -754 -595 c 256
 -498 -595 -234 -430 -234 -325 c 256
 -234 -250 -308 -210 -444 -210 c 256
 -700 -210 -950 -370 -950 -485 c 256
-1064 -495 m 256
 -1064 -300 -738 -105 -424 -105 c 256
 -230 -105 -120 -180 -120 -315 c 256
 -120 -508 -460 -700 -774 -700 c 256
 -928 -700 -1064 -638 -1064 -495 c 256
EndSplineSet
Fore
SplineSet
-1010 -515 m 256
 -1010 -603 -900 -635 -794 -635 c 256
 -498 -635 -234 -470 -234 -345 c 256
 -234 -267 -318 -220 -464 -220 c 256
 -760 -220 -1010 -380 -1010 -515 c 256
-1124 -525 m 256
 -1124 -310 -798 -115 -444 -115 c 256
 -240 -115 -120 -197 -120 -335 c 256
 -120 -548 -460 -740 -814 -740 c 256
 -978 -740 -1124 -672 -1124 -525 c 256
EndSplineSet
EndChar

StartChar: dailuemodifierfinal
Encoding: 65540 -1 40
GlifName: dailuemodifierfinal
Width: 0
VWidth: 0
GlyphClass: 2
Flags: W
LayerCount: 2
Back
Fore
SplineSet
-130 -525 m 257
 -254 -525 l 257
 -254 -460 -298 -420 -364 -420 c 256
 -430 -420 -470 -460 -470 -525 c 256
 -470 -590 -430 -635 -364 -635 c 256
 -298 -635 -254 -590 -254 -525 c 258
 -254 234 l 257
 -130 470 l 257
 -130 -525 l 258
 -130 -652 -235 -740 -364 -740 c 256
 -483 -740 -574 -653 -574 -525 c 256
 -574 -394 -484 -315 -374 -315 c 256
 -260 -315 -150 -450 -130 -525 c 257
EndSplineSet
EndChar

StartChar: uni25CC
Encoding: 9676 9676 44
GlifName: uni25C_C_
Width: 1638
VWidth: 0
GlyphClass: 2
Flags: W
LayerCount: 2
Back
Fore
SplineSet
1208 989 m 256
 1200 981 1190 977 1177 977 c 256
 1164 977 1154 981 1145 989 c 256
 1136 998 1132 1009 1132 1022 c 256
 1132 1034 1136 1044 1145 1053 c 256
 1154 1062 1164 1066 1177 1066 c 256
 1190 1066 1200 1062 1208 1053 c 256
 1217 1044 1222 1033 1222 1022 c 256
 1222 1009 1217 998 1208 989 c 256
1053 1116 m 256
 1042 1092 1016 1081 993 1092 c 257
 970 1100 961 1126 969 1149 c 257
 980 1174 1005 1185 1028 1174 c 257
 1051 1165 1064 1139 1053 1116 c 256
1329 872 m 257
 1340 849 1329 824 1305 813 c 257
 1282 805 1255 815 1247 838 c 257
 1236 861 1247 886 1272 897 c 256
 1295 908 1321 895 1329 872 c 257
860 1171 m 256
 860 1147 840 1126 815 1126 c 256
 791 1126 770 1147 770 1171 c 256
 770 1196 791 1217 815 1217 c 256
 840 1217 860 1196 860 1171 c 256
1372 659 m 256
 1372 635 1352 614 1327 614 c 256
 1303 614 1282 635 1282 659 c 256
 1282 684 1303 705 1327 705 c 256
 1352 705 1372 684 1372 659 c 256
662 1149 m 257
 670 1126 660 1100 637 1092 c 257
 614 1081 589 1092 578 1116 c 256
 567 1139 579 1165 602 1174 c 257
 625 1185 651 1174 662 1149 c 257
1329 446 m 257
 1321 423 1295 411 1272 422 c 256
 1247 433 1236 458 1247 481 c 257
 1255 504 1282 514 1305 506 c 257
 1329 495 1340 469 1329 446 c 257
485 989 m 257
 476 981 465 977 453 977 c 256
 440 977 430 981 422 989 c 256
 413 998 408 1009 408 1022 c 256
 408 1034 413 1044 422 1053 c 256
 430 1062 440 1066 453 1066 c 256
 466 1066 476 1062 485 1053 c 256
 494 1043 498 1033 498 1022 c 256
 498 1010 494 999 485 989 c 257
1208 266 m 257
 1200 257 1190 252 1177 252 c 256
 1165 252 1154 257 1145 266 c 256
 1136 274 1132 284 1132 297 c 256
 1132 310 1136 321 1145 330 c 256
 1154 338 1164 342 1177 342 c 256
 1190 342 1200 338 1208 330 c 257
 1217 319 1222 308 1222 297 c 256
 1222 284 1217 274 1208 266 c 257
383 838 m 257
 375 815 349 805 326 813 c 257
 301 824 290 849 301 872 c 257
 309 895 335 908 358 897 c 256
 383 886 394 861 383 838 c 257
1053 203 m 256
 1064 180 1051 154 1028 145 c 257
 1005 134 980 145 969 170 c 257
 961 193 970 219 993 227 c 257
 1016 238 1042 227 1053 203 c 256
348 659 m 256
 348 635 328 614 303 614 c 256
 279 614 258 635 258 659 c 256
 258 684 279 705 303 705 c 256
 328 705 348 684 348 659 c 256
860 147 m 256
 860 123 840 102 815 102 c 256
 791 102 770 123 770 147 c 256
 770 172 791 193 815 193 c 256
 840 193 860 172 860 147 c 256
383 481 m 257
 394 458 383 433 358 422 c 256
 335 411 309 423 301 446 c 257
 290 469 301 495 326 506 c 257
 349 514 375 504 383 481 c 257
662 170 m 257
 651 145 625 134 602 145 c 257
 579 154 567 180 578 203 c 256
 589 227 614 238 637 227 c 257
 660 219 670 193 662 170 c 257
485 266 m 256
 476 257 465 252 453 252 c 256
 440 252 430 257 422 266 c 257
 413 273 408 284 408 297 c 256
 408 310 413 321 422 330 c 256
 430 338 440 342 453 342 c 256
 465 342 476 338 485 330 c 257
 494 319 498 308 498 297 c 256
 498 285 494 275 485 266 c 256
EndSplineSet
EndChar

StartChar: uni3001
Encoding: 12289 12289 46
GlifName: uni3001
Width: 1100
VWidth: 0
GlyphClass: 2
Flags: W
LayerCount: 2
Back
Fore
SplineSet
506 60 m 256
 506 7 477 -20 420 -20 c 256
 385 -20 361 -1 350 37 c 257
 328 146 l 257
 311 201 284 251 246 298 c 256
 213 339 168 377 110 412 c 256
 103 416 100 421 100 428 c 256
 100 433 106 436 117 436 c 256
 152 436 200 418 261 383 c 257
 319 348 365 312 398 274 c 256
 470 190 506 119 506 60 c 256
EndSplineSet
EndChar

StartChar: uni3002
Encoding: 12290 12290 47
GlifName: uni3002
Width: 1100
VWidth: 0
GlyphClass: 2
Flags: W
LayerCount: 2
Back
Fore
SplineSet
470 165 m 256
 470 114 452 70 416 34 c 256
 380 -2 336 -20 285 -20 c 256
 234 -20 190 -2 154 34 c 256
 118 70 100 114 100 165 c 256
 100 216 118 260 154 296 c 256
 190 332 234 350 285 350 c 256
 336 350 380 332 416 296 c 256
 452 260 470 216 470 165 c 256
419 165 m 256
 419 202 406 234 380 260 c 256
 354 286 322 299 285 299 c 256
 248 299 216 286 190 260 c 256
 164 234 151 202 151 165 c 256
 151 128 164 96 190 70 c 256
 216 44 248 31 285 31 c 256
 322 31 354 44 380 70 c 256
 406 96 419 128 419 165 c 256
EndSplineSet
EndChar

StartChar: uni3008
Encoding: 12296 12296 48
GlifName: uni3008
Width: 1100
VWidth: 0
GlyphClass: 2
Flags: W
LayerCount: 2
Back
Fore
SplineSet
999 13 m 257
 946 -13 l 257
 599 677 l 257
 946 1368 l 257
 999 1342 l 257
 666 677 l 257
 999 13 l 257
EndSplineSet
EndChar

StartChar: uni3009
Encoding: 12297 12297 49
GlifName: uni3009
Width: 1100
VWidth: 0
GlyphClass: 2
Flags: W
LayerCount: 2
Back
Fore
SplineSet
154 -13 m 257
 100 13 l 257
 433 677 l 257
 100 1342 l 257
 154 1368 l 257
 501 677 l 257
 154 -13 l 257
EndSplineSet
EndChar

StartChar: uni300A
Encoding: 12298 12298 50
GlifName: uni300A_
Width: 1100
VWidth: 0
GlyphClass: 2
Flags: W
LayerCount: 2
Back
Fore
SplineSet
999 13 m 257
 946 -13 l 257
 599 677 l 257
 946 1368 l 257
 999 1342 l 257
 666 677 l 257
 999 13 l 257
699 13 m 257
 646 -13 l 257
 299 677 l 257
 646 1368 l 257
 699 1342 l 257
 366 677 l 257
 699 13 l 257
EndSplineSet
EndChar

StartChar: uni300B
Encoding: 12299 12299 51
GlifName: uni300B_
Width: 1100
VWidth: 0
GlyphClass: 2
Flags: W
LayerCount: 2
Back
Fore
SplineSet
154 -13 m 257
 100 13 l 257
 433 677 l 257
 100 1342 l 257
 154 1368 l 257
 501 677 l 257
 154 -13 l 257
454 -13 m 257
 400 13 l 257
 733 677 l 257
 400 1342 l 257
 454 1368 l 257
 801 677 l 257
 454 -13 l 257
EndSplineSet
EndChar

StartChar: uniFF01
Encoding: 65281 65281 52
GlifName: uniF_F_01
Width: 1100
VWidth: 0
GlyphClass: 2
Flags: W
LayerCount: 2
Back
Fore
SplineSet
325 1156 m 256
 325 1111 323 979 321 953 c 258
 257 314 l 258
 255 291 211 291 208 314 c 258
 148 953 l 257
 145 999 142 1111 142 1156 c 256
 142 1197 168 1209 235 1209 c 256
 302 1209 325 1194 325 1156 c 256
335 108 m 256
 335 27 288 -26 235 -26 c 256
 178 -26 137 29 137 108 c 256
 137 193 187 238 235 238 c 256
 282 238 335 189 335 108 c 256
EndSplineSet
EndChar

StartChar: uniFF08
Encoding: 65288 65288 53
GlifName: uniF_F_08
Width: 1099
VWidth: 0
GlyphClass: 2
Flags: W
LayerCount: 2
Back
Fore
SplineSet
935 24 m 256
 926 16 894 17 859 32 c 256
 710 96 547 292 547 676 c 256
 547 1083 718 1256 859 1335 c 256
 893 1354 925 1360 935 1354 c 256
 942 1350 934 1339 891 1317 c 256
 797 1268 632 1056 632 682 c 256
 632 308 793 95 891 57 c 256
 935 39 941 28 935 24 c 256
EndSplineSet
EndChar

StartChar: uniFF09
Encoding: 65289 65289 54
GlifName: uniF_F_09
Width: 1099
VWidth: 0
GlyphClass: 2
Flags: W
LayerCount: 2
Back
Fore
SplineSet
552 700 m 256
 552 293 381 120 240 41 c 256
 206 22 174 16 163 22 c 256
 157 26 165 37 207 59 c 256
 301 108 466 319 466 694 c 256
 466 1067 306 1281 208 1319 c 256
 163 1337 157 1348 163 1352 c 256
 172 1360 205 1359 240 1344 c 256
 388 1280 552 1084 552 700 c 256
EndSplineSet
EndChar

StartChar: uniFF0C
Encoding: 65292 65292 55
GlifName: uniF_F_0C_
Width: 1100
VWidth: 0
GlyphClass: 2
Flags: W
LayerCount: 2
Back
Fore
SplineSet
371 286 m 256
 371 -18 123 -225 114 -194 c 256
 107 -171 303 -10 303 240 c 256
 303 268 288 297 279 297 c 256
 267 297 239 262 209 262 c 256
 155 262 107 332 107 411 c 256
 107 502 172 552 222 552 c 256
 330 552 371 420 371 286 c 256
EndSplineSet
EndChar

StartChar: uniFF0E
Encoding: 65294 65294 56
GlifName: uniF_F_0E_
Width: 1100
VWidth: 0
GlyphClass: 2
Flags: W
LayerCount: 2
Back
Fore
SplineSet
648 111 m 256
 648 31 604 -21 550 -21 c 256
 495 -21 453 33 453 111 c 256
 453 195 503 239 550 239 c 256
 597 239 648 191 648 111 c 256
EndSplineSet
EndChar

StartChar: uniFF1A
Encoding: 65306 65306 57
GlifName: uniF_F_1A_
Width: 1000
VWidth: 0
GlyphClass: 2
Flags: W
LayerCount: 2
Back
Fore
SplineSet
322 318 m 256
 322 242 280 192 229 192 c 256
 177 192 137 244 137 318 c 256
 137 398 184 440 229 440 c 256
 274 440 322 394 322 318 c 256
321 919 m 256
 321 843 279 793 228 793 c 256
 176 793 136 845 136 919 c 256
 136 999 183 1041 228 1041 c 256
 273 1041 321 995 321 919 c 256
EndSplineSet
EndChar

StartChar: uniFF1B
Encoding: 65307 65307 58
GlifName: uniF_F_1B_
Width: 1100
VWidth: 0
GlyphClass: 2
Flags: W
LayerCount: 2
Back
Fore
SplineSet
313 919 m 256
 313 843 271 793 220 793 c 256
 168 793 128 845 128 919 c 256
 128 999 175 1041 220 1041 c 256
 265 1041 313 995 313 919 c 256
336 213 m 256
 336 -40 129 -213 122 -187 c 256
 116 -168 279 -34 279 175 c 256
 279 198 267 222 259 222 c 256
 249 222 226 193 201 193 c 256
 156 193 116 251 116 317 c 256
 116 393 170 435 212 435 c 256
 302 435 336 325 336 213 c 256
EndSplineSet
EndChar

StartChar: uniFF1F
Encoding: 65311 65311 59
GlifName: uniF_F_1F_
Width: 1100
VWidth: 0
GlyphClass: 2
Flags: W
LayerCount: 2
Back
Fore
SplineSet
812 939 m 256
 808 644 549 588 536 574 c 256
 521 557 526 315 528 288 c 257
 530 276 525 264 478 264 c 256
 426 264 418 269 414 286 c 257
 409 315 418 613 432 632 c 256
 444 648 677 706 677 932 c 256
 677 1079 579 1172 493 1172 c 256
 374 1172 297 1069 265 971 c 256
 257 949 244 945 187 979 c 256
 129 1013 120 1033 132 1049 c 257
 183 1126 281 1259 497 1259 c 256
 655 1259 814 1143 812 939 c 256
565 68 m 256
 565 20 526 -22 478 -22 c 256
 430 -22 393 20 393 68 c 256
 393 116 424 167 473 167 c 256
 525 167 565 133 565 68 c 256
EndSplineSet
EndChar

StartChar: uni1980
Encoding: 6528 6528 60
GlifName: uni1980
Width: 1785
VWidth: 0
GlyphClass: 2
Flags: W
LayerCount: 2
Back
Fore
SplineSet
500 -20 m 256
 353 -20 227 38 120 175 c 256
 112 185 116 199 126 207 c 258
 195 261 l 258
 205 269 218 265 225 255 c 256
 306 148 389 105 500 105 c 256
 657 105 815 199 815 451 c 256
 815 690 662 805 490 805 c 256
 379 805 296 762 215 655 c 256
 208 645 196 642 185 649 c 257
 116 703 l 257
 105 710 102 725 110 735 c 256
 217 872 343 930 490 930 c 256
 755 930 940 739 940 451 c 256
 940 147 756 -20 500 -20 c 256
880.24 643 m 256
 872.24 634 860.24 629 850.24 637 c 258
 791.24 691 l 258
 781.793 699.646 777.24 713 785.24 723 c 257
 871.24 814 1004 930 1210 930 c 256
 1487 930 1675 772 1675 480 c 256
 1675 238 1512 41 1157 40 c 256
 1147 40 1137 48 1137 57 c 258
 1137 107 l 258
 1137 118 1147 125 1157 125 c 256
 1397 125 1550 300 1550 480 c 256
 1550 700 1386 805 1210 805 c 256
 1077 805 963.24 730 880.24 643 c 256
1680 -295 m 256
 1680 -598 1416 -740 1159 -740 c 256
 931 -740 753 -574 703 -442 c 256
 699 -432 707 -420 717 -416 c 258
 749 -405 l 258
 757 -402 769 -410 774 -420 c 256
 829 -530 963 -635 1159 -635 c 256
 1336 -635 1555 -545 1555 -295 c 256
 1555 -58 1344 40 1160 40 c 257
 1160 125 l 257
 1510 125 1680 -32 1680 -295 c 256
EndSplineSet
EndChar

StartChar: uni19D0
Encoding: 6608 6608 61
GlifName: uni19D_0
Width: 1185
VWidth: 0
GlyphClass: 2
Flags: W
LayerCount: 2
Back
Fore
SplineSet
595 930 m 256
 902 930 1075 733 1075 450 c 256
 1075 187 912 -20 595 -20 c 256
 268 -20 110 188 110 450 c 256
 110 722 278 930 595 930 c 256
595 805 m 256
 359 805 235 651 235 450 c 256
 235 250 369 105 595 105 c 256
 822 105 950 260 950 450 c 256
 950 651 812 805 595 805 c 256
EndSplineSet
EndChar

StartChar: uni199E
Encoding: 6558 6558 62
GlifName: uni199E_
Width: 1185
VWidth: 0
GlyphClass: 2
Flags: W
LayerCount: 2
Back
Fore
SplineSet
595 930 m 256
 902 930 1075 733 1075 450 c 256
 1075 187 912 -20 595 -20 c 256
 268 -20 110 188 110 450 c 256
 110 722 278 930 595 930 c 256
595 805 m 256
 359 805 235 651 235 450 c 256
 235 250 369 105 595 105 c 256
 822 105 950 260 950 450 c 256
 950 651 812 805 595 805 c 256
EndSplineSet
EndChar

StartChar: uni19B1
Encoding: 6577 6577 63
GlifName: uni19B_1
Width: 1150
VWidth: 0
GlyphClass: 2
Flags: W
LayerCount: 2
Back
Fore
SplineSet
530 -20 m 256
 383 -20 217 33 110 175 c 256
 102 185 105 200 116 207 c 258
 185 251 l 258
 196 258 207 255 215 245 c 256
 296 143 409 105 530 105 c 256
 757 105 915 228 915 450 c 256
 915 679 742 805 540 805 c 256
 389 805 296 742 215 635 c 256
 208 625 196 622 185 629 c 258
 116 673 l 258
 105 680 102 695 110 705 c 256
 227 852 353 930 540 930 c 256
 855 930 1040 718 1040 450 c 256
 1040 176 846 -20 530 -20 c 256
EndSplineSet
EndChar

StartChar: uni1985
Encoding: 6533 6533 64
GlifName: uni1985
Width: 1250
VWidth: 0
GlyphClass: 2
Flags: W
LayerCount: 2
Back
Fore
SplineSet
110 420 m 256
 110 725 337 930 625 930 c 256
 939 930 1140 736 1140 430 c 256
 1140 209 1059 74 880 -17 c 256
 876.245 -18.909 872 -20 868 -20 c 256
 862 -20 857.044 -16.4799 854 -11 c 258
 806 67 l 258
 801 75 805.407 88.8789 815 93 c 256
 950 151 1015 247 1015 430 c 256
 1015 627 877 805 625 805 c 256
 376 805 235 622 235 420 c 256
 235 269 308 171 415 90 c 256
 425 83 428 71 421 60 c 257
 367 -9 l 257
 360.8 -16.0599 355 -20 348 -20 c 256
 344 -20 338.729 -17.9835 335 -15 c 256
 188 92 110 223 110 420 c 256
EndSplineSet
EndChar

StartChar: uni198D
Encoding: 6541 6541 65
GlifName: uni198D_
Width: 1905
VWidth: 0
GlyphClass: 2
Flags: W
LayerCount: 2
Back
Fore
SplineSet
910 380 m 256
 910 390 918 400 927 400 c 258
 977 400 l 258
 988 400 995 390 995 380 c 256
 995 331 984 275 974 238 c 256
 933 84 772 -20 565 -20 c 256
 268 -20 110 188 110 450 c 256
 110 712 250 929 495 930 c 256
 527 930 564 925 595 912 c 256
 605 908 608 896 603 887 c 258
 557 808 l 258
 553 800 541 800 530 802 c 256
 521 804 506 805 495 805 c 256
 335 805 235 644 235 450 c 256
 235 250 369 105 565 105 c 256
 762 105 910 209 910 380 c 256
995 380 m 256
 995 209 1143 105 1340 105 c 256
 1536 105 1670 250 1670 450 c 256
 1670 640 1570 805 1410 805 c 256
 1399 805 1384 804 1375 802 c 256
 1364 800 1352 800 1348 808 c 258
 1302 887 l 258
 1297 896 1300 908 1310 912 c 256
 1341 925 1378 930 1410 930 c 256
 1655 929 1795 722 1795 450 c 256
 1795 188 1637 -20 1340 -20 c 256
 1133 -20 972 84 931 238 c 256
 921 275 910 331 910 380 c 256
 910 390 917 400 928 400 c 258
 978 400 l 258
 987 400 995 390 995 380 c 256
EndSplineSet
EndChar

StartChar: uni1982
Encoding: 6530 6530 66
GlifName: uni1982
Width: 1805
VWidth: 0
GlyphClass: 2
Flags: W
LayerCount: 2
Back
Fore
SplineSet
945 530 m 256
 945 520 937 510 928 510 c 258
 878 510 l 258
 867 510 860 520 860 530 c 256
 860 579 871 635 881 672 c 256
 922 826 1083 930 1260 930 c 256
 1527 930 1695 722 1695 460 c 256
 1695 248 1605 -19 1360 -20 c 256
 1328 -20 1291 -15 1260 -2 c 256
 1250 2 1247 14 1252 23 c 258
 1298 102 l 258
 1302 110 1314 110 1325 108 c 256
 1334 106 1349 105 1360 105 c 256
 1520 105 1570 316 1570 460 c 256
 1570 660 1426 805 1260 805 c 256
 1093 805 945 701 945 530 c 256
860 530 m 256
 860 701 712 805 545 805 c 256
 379 805 235 660 235 460 c 256
 235 320 285 105 445 105 c 256
 456 105 471 106 480 108 c 256
 491 110 503 110 507 102 c 258
 553 23 l 258
 558 14 555 2 545 -2 c 256
 514 -15 477 -20 445 -20 c 256
 200 -19 110 248 110 460 c 256
 110 722 278 930 545 930 c 256
 722 930 883 826 924 672 c 256
 934 635 945 579 945 530 c 256
 945 520 938 510 927 510 c 258
 877 510 l 258
 868 510 860 520 860 530 c 256
EndSplineSet
EndChar

StartChar: uni19B2
Encoding: 6578 6578 67
GlifName: uni19B_2
Width: 1145
VWidth: 0
GlyphClass: 2
Flags: W
LayerCount: 2
Back
Fore
SplineSet
575 1650 m 256
 882 1650 1015 1333 1015 810 c 256
 1015 307 892 -20 575 -20 c 256
 248 -20 130 308 130 810 c 256
 130 1322 258 1650 575 1650 c 256
575 1540 m 256
 339 1540 255 1251 255 810 c 256
 255 370 349 105 575 105 c 256
 802 105 890 380 890 810 c 256
 890 1251 792 1540 575 1540 c 256
866 425 m 257
 865 700 712 815 575 815 c 256
 439 815 277 702 276 425 c 257
 241 635 l 257
 271 836 427 930 575 930 c 256
 719 930 881 836 906 635 c 257
 866 425 l 257
EndSplineSet
EndChar

StartChar: uni19C0
Encoding: 6592 6592 68
GlifName: uni19C_0
Width: 1730
VWidth: 0
GlyphClass: 2
Flags: W
LayerCount: 2
Back
Fore
SplineSet
866 425 m 257
 865 700 712 815 575 815 c 256
 439 815 277 702 276 425 c 257
 241 635 l 257
 271 836 427 930 575 930 c 256
 719 930 881 836 906 635 c 257
 866 425 l 257
575 1650 m 256
 882 1650 1015 1333 1015 810 c 256
 1015 307 892 -20 575 -20 c 256
 248 -20 130 308 130 810 c 256
 130 1322 258 1650 575 1650 c 256
575 1540 m 256
 339 1540 255 1251 255 810 c 256
 255 370 349 105 575 105 c 256
 802 105 890 380 890 810 c 256
 890 1251 792 1540 575 1540 c 256
1580 890 m 258
 1580 -305 l 258
 1580 -563 1458 -740 1210 -740 c 256
 952 -740 860 -563 860 -305 c 258
 860 291 l 257
 985 770 l 257
 985 -305 l 258
 985 -497 1051 -625 1210 -625 c 256
 1369 -625 1455 -497 1455 -305 c 258
 1455 890 l 258
 1455 900 1462 910 1473 910 c 258
 1563 910 l 258
 1572 910 1580 900 1580 890 c 258
EndSplineSet
EndChar

StartChar: uni19B8
Encoding: 6584 6584 69
GlifName: uni19B_8
Width: 1200
VWidth: 0
GlyphClass: 2
Flags: W
LayerCount: 2
Back
Fore
SplineSet
1121 200 m 256
 1097 75 991 -19 856 -20 c 256
 607 -22 366 322 366 590 c 256
 366 803 430 930 601 930 c 257
 601 805 l 257
 526 805 491 719 491 575 c 256
 491 382 664 93 856 95 c 256
 940 96 999 167 1011 260 c 256
 1012 271 1030 273 1037 269 c 258
 1115 224 l 258
 1124 218 1123 209 1121 200 c 256
81 200 m 256
 80 209 78 218 87 224 c 258
 165 269 l 258
 172 273 190 271 191 260 c 256
 203 167 262 96 346 95 c 256
 538 93 711 382 711 575 c 256
 711 719 676 804 601 805 c 257
 601 930 l 257
 772 930 836 803 836 590 c 256
 836 322 595 -22 346 -20 c 256
 211 -19 105 75 81 200 c 256
EndSplineSet
EndChar

StartChar: uni1995
Encoding: 6549 6549 70
GlifName: uni1995
Width: 1228
VWidth: 0
GlyphClass: 2
Flags: W
LayerCount: 2
Back
Fore
SplineSet
1110 90 m 256
 1119 87 1123 73 1118 64 c 258
 1072 -15 l 258
 1068 -23 1056 -24 1045 -20 c 256
 848 52 675 311 675 580 c 256
 675 793 729 930 880 930 c 257
 880 825 l 257
 805 821 780 719 780 585 c 256
 780 364 946 147 1110 90 c 256
120 670 m 256
 120 815 233 930 380 930 c 256
 451 930 499 918 550 895 c 256
 559.116 890.889 562.945 880.03 558 871 c 258
 512 787 l 258
 508 779 494.855 774.721 485 780 c 256
 457 795 430 805 380 805 c 256
 301 805 245 754 245 670 c 256
 245 583 290 515 477 515 c 256
 487 515 497 508 497 497 c 258
 497 447 l 258
 497 438 487 430 477 430 c 256
 316 430 120 489 120 670 c 256
505 -20 m 256
 280 -20 120 72 120 270 c 256
 120 392 259 512 415 512 c 256
 434 512 468 512 480 512 c 256
 489 512 495 494 495 472 c 256
 495 450 493 430.021 480 430 c 256
 295.006 429.692 245 354 245 280 c 256
 245 148 350 105 505 105 c 256
 827 105 980 382 980 585 c 256
 980 719 955 821 880 825 c 257
 880 930 l 257
 1031 930 1085 793 1085 580 c 256
 1085 292 894 -20 505 -20 c 256
EndSplineSet
EndChar

StartChar: uni19A0
Encoding: 6560 6560 71
GlifName: uni19A_0
Width: 1735
VWidth: 0
GlyphClass: 2
Flags: W
LayerCount: 2
Back
Fore
SplineSet
110 450 m 256
 110 722 220 929 465 930 c 256
 497 930 534 925 565 912 c 256
 575 908 578 896 573 887 c 258
 527 808 l 258
 523 800 511 800 500 802 c 256
 491 804 476 805 465 805 c 256
 305 805 235 640 235 450 c 256
 235 220 362 105 508 105 c 256
 694 105 770 238 803 455 c 256
 839 689 912 930 1213 930 c 256
 1510 930 1625 672 1625 420 c 256
 1625 158 1495 -19 1250 -20 c 256
 1218 -20 1181 -15 1150 -2 c 256
 1140 2 1137 14 1142 23 c 258
 1188 102 l 258
 1192 110 1204 110 1215 108 c 256
 1224 106 1239 105 1250 105 c 256
 1410 105 1500 230 1500 420 c 256
 1500 610 1419 805 1213 805 c 256
 1024 805 961 639 933 455 c 256
 891 178 796 -20 508 -20 c 256
 261 -20 110 158 110 450 c 256
EndSplineSet
EndChar

StartChar: uni199F
Encoding: 6559 6559 72
GlifName: uni199F_
Width: 1735
VWidth: 0
GlyphClass: 2
Flags: W
LayerCount: 2
Back
Fore
SplineSet
1625 450 m 256
 1625 158 1474 -20 1227 -20 c 256
 939 -20 844.126 178.169 802 455 c 256
 774 639 711 805 522 805 c 256
 316 805 235 610 235 420 c 256
 235 230 325 105 485 105 c 256
 496 105 511 106 520 108 c 256
 531 110 543 110 547 102 c 258
 593 23 l 258
 598 14 595 2 585 -2 c 256
 554 -15 517 -20 485 -20 c 256
 240 -19 110 158 110 420 c 256
 110 672 225 930 522 930 c 256
 823 930 896 689 932 455 c 256
 965 238 1041 105 1227 105 c 256
 1373 105 1500 220 1500 450 c 256
 1500 640 1430 805 1270 805 c 256
 1259 805 1244 804 1235 802 c 256
 1224 800 1212 800 1208 808 c 258
 1162 887 l 258
 1157 896 1160 908 1170 912 c 256
 1201 925 1238 930 1270 930 c 256
 1515 929 1625 722 1625 450 c 256
EndSplineSet
EndChar

StartChar: uni1990
Encoding: 6544 6544 73
GlifName: uni1990
Width: 1735
VWidth: 0
GlyphClass: 2
Flags: HW
LayerCount: 2
Back
SplineSet
841 -220 m 4
 540.360351562 -220 420 -306.033203125 420 -420 c 260
 420 -536 550.993164062 -628.96484375 920 -630 c 260
 1323.01278226 -631.130551415 1475 -495 1525 -405 c 260
 1528.43359375 -398.818359375 1532 -388 1543 -388 c 262
 1583 -388 l 262
 1592 -388 1603.07816116 -396.483754113 1600 -405 c 260
 1540 -571 1376 -740 915 -740 c 260
 390 -740 295 -572 295 -420 c 260
 295 -266.065429688 426.208007812 -115.1171875 825.103515625 -115.1171875 c 4
 1007 -115.1171875 1088.47460938 -133.213867188 1195 -141 c 260
 1205.02050781 -141.732421875 1215 -133 1215 -124 c 262
 1215 30 l 261
 1325 30 l 261
 1325 -237 l 262
 1325 -248 1315.98046875 -256.145507812 1306 -255 c 260
 1170.34472656 -239.435546875 1042 -220 841 -220 c 4
110 450 m 256
 110 722 220 929 465 930 c 256
 497 930 534 925 565 912 c 256
 575 908 578 896 573 887 c 258
 527 808 l 258
 523 800 511 800 500 802 c 256
 491 804 476 805 465 805 c 256
 305 805 235 640 235 450 c 256
 235 220 362 105 508 105 c 256
 694 105 770 238 803 455 c 256
 839 689 912 930 1213 930 c 256
 1510 930 1625 672 1625 420 c 256
 1625 158 1495 -19 1250 -20 c 256
 1218 -20 1181 -15 1150 -2 c 256
 1140 2 1137 14 1142 23 c 258
 1188 102 l 258
 1192 110 1204 110 1215 108 c 256
 1224 106 1239 105 1250 105 c 256
 1410 105 1500 230 1500 420 c 256
 1500 610 1419 805 1213 805 c 256
 1024 805 961 639 933 455 c 256
 891 178 796 -20 508 -20 c 256
 261 -20 110 158 110 450 c 256
709.165 -427.999 m 256
 700.676 -397.289 703.499 -391.922 715.167 -387.668 c 258
 748.167 -375 l 258
 759.601 -370.611 770.928 -375.876 778.167 -399.001 c 256
 826.167 -552.333 962 -635 1175 -635 c 256
 1393 -635 1480 -531 1480 -415 c 256
 1480 -311 1398 -211 1234 -215 c 256
 1224 -215.244 1215 -208 1215 -197 c 258
 1215 50 l 257
 1325 50 l 257
 1325 -104 l 258
 1325 -113 1334.82 -120.405 1345 -121 c 256
 1516 -131 1605 -262 1605 -415 c 256
 1605 -577 1490 -740 1175 -740 c 256
 904 -740 750.167 -576.333 709.165 -427.999 c 256
EndSplineSet
Fore
SplineSet
110 450 m 256
 110 722 220 929 465 930 c 256
 497 930 534 925 565 912 c 256
 575 908 578 896 573 887 c 258
 527 808 l 258
 523 800 511 800 500 802 c 256
 491 804 476 805 465 805 c 256
 305 805 235 640 235 450 c 256
 235 220 362 105 508 105 c 256
 694 105 770 238 803 455 c 256
 839 689 912 930 1213 930 c 256
 1510 930 1625 672 1625 420 c 256
 1625 158 1495 -19 1250 -20 c 256
 1218 -20 1181 -15 1150 -2 c 256
 1140 2 1137 14 1142 23 c 258
 1188 102 l 258
 1192 110 1204 110 1215 108 c 256
 1224 106 1239 105 1250 105 c 256
 1410 105 1500 230 1500 420 c 256
 1500 610 1419 805 1213 805 c 256
 1024 805 961 639 933 455 c 256
 891 178 796 -20 508 -20 c 256
 261 -20 110 158 110 450 c 256
279.165039062 -447.999023438 m 256
 264.615976594 -419.652904893 273.499023438 -411.921875 285.166992188 -407.66796875 c 258
 318.166992188 -395 l 258
 329.600585938 -390.611328125 335.931211645 -398.085316643 348.166992188 -419.000976562 c 256
 426.166992188 -552.333007812 622 -630 935 -630 c 260
 1323 -630 1480 -511 1480 -385 c 260
 1480 -281 1408 -211 1234 -215 c 256
 1223.99966574 -215.229892742 1215 -208 1215 -197 c 258
 1215 50 l 257
 1325 50 l 257
 1325 -104 l 258
 1325 -113 1334.81815431 -120.437467089 1345 -121 c 256
 1526 -131 1605 -232 1605 -385 c 256
 1605 -547 1440 -740 935 -740 c 256
 484 -740 350.166992188 -586.333007812 279.165039062 -447.999023438 c 256
EndSplineSet
EndChar

StartChar: uni19B5
Encoding: 6581 6581 74
GlifName: uni19B_5
Width: 1289
VWidth: 0
GlyphClass: 2
Flags: W
LayerCount: 2
Back
Fore
SplineSet
875 140 m 256
 875 261 935 384 935 510 c 256
 935 670 841 805 605 805 c 256
 395 805 245 638 245 395 c 256
 245 236 337 105 455 105 c 256
 478 105 497 112 520 123 c 256
 529 127 543 125 547 117 c 258
 593 38 l 258
 598 29 595 18 585 13 c 256
 541 -9 497 -20 455 -20 c 256
 253 -20 120 159.992 120 395 c 256
 120 681 290 930 605 930 c 256
 932 930 1060 732 1060 510 c 256
 1060 369 990 239 990 150 c 256
 990 111 1016 80 1050 80 c 256
 1098 80 1142 137 1150 185 c 256
 1152 194 1167 196 1174 190 c 258
 1214 151 l 258
 1220 146 1218 135 1215 125 c 256
 1196 49 1140 -20 1050 -20 c 256
 944 -20 875 52 875 140 c 256
EndSplineSet
EndChar

StartChar: uni19C2
Encoding: 6594 6594 75
GlifName: uni19C_2
Width: 1225
VWidth: 0
GlyphClass: 2
Flags: W
LayerCount: 2
Back
Fore
SplineSet
1115 145 m 256
 1115 -38 1091 -263 1031 -525 c 256
 999 -664 925 -740 796 -740 c 256
 677 -740 585 -653 585 -525 c 256
 585 -395 677 -315 786 -315 c 256
 839 -315 892 -333 935 -376 c 257
 970 -170 990 -15 990 145 c 256
 990 572 840 805 595 805 c 256
 355 805 235 598 235 395 c 256
 235 216 247 105 335 105 c 256
 375 105 421.648 146.164 463 201 c 256
 509 262 570 320 635 320 c 256
 748 320 825 242 825 130 c 256
 825 42 752 -21 711 -44 c 256
 702 -49 693 -45 687 -36 c 258
 640 42 l 258
 634 51 641 60 649 65 c 256
 666 75 700 90 700 130 c 256
 700 172 668 195 635 195 c 256
 607 195 568.65 146.315 529 92 c 256
 483.903 30.2236 415 -20 335 -20 c 256
 163 -20 110 136 110 395 c 256
 110 661 280 930 595 930 c 256
 905 930 1115 671 1115 145 c 256
797 -635 m 256
 863 -635 907 -590 907 -525 c 256
 907 -458 862 -420 797 -420 c 256
 731 -420 690 -460 690 -525 c 256
 690 -590 731 -635 797 -635 c 256
EndSplineSet
EndChar

StartChar: uni1996
Encoding: 6550 6550 76
GlifName: uni1996
Width: 1735
VWidth: 0
GlyphClass: 2
Flags: HW
LayerCount: 2
Back
SplineSet
1675 -295 m 258
 1675 -513 1518 -740 920 -740 c 256
 422 -740 295 -610 295 -425 c 256
 295 -233 463 -115 787 -115 c 256
 1110 -115 1255 -227.982421875 1255 -360 c 256
 1255 -451 1185.45019531 -556.026367188 954 -548 c 256
 943.056640625 -547.620117188 936 -546 937 -538 c 256
 938 -530 944 -500 944 -500 c 258
 945.294921875 -495.078125 948.34765625 -490.887695312 960 -491 c 256
 1098.99707031 -492.33984375 1155 -443.069335938 1155 -369 c 256
 1155 -284 1030 -220 787 -220 c 256
 533 -220 405 -303 405 -425 c 256
 405 -547 532 -630 920 -630 c 256
 1469 -630 1550 -417 1550 -295 c 1282
110 450 m 256
 110 722 220 929 465 930 c 256
 497 930 534 925 565 912 c 256
 575 908 578 896 573 887 c 258
 527 808 l 258
 523 800 511 800 500 802 c 256
 491 804 476 805 465 805 c 256
 305 805 235 640 235 450 c 256
 235 220 362 105 508 105 c 256
 694 105 770 238 803 455 c 256
 839 689 912 930 1213 930 c 256
 1510 930 1625 672 1625 420 c 256
 1625 158 1495 -19 1250 -20 c 256
 1218 -20 1181 -15 1150 -2 c 256
 1140 2 1137 14 1142 23 c 258
 1188 102 l 258
 1192 110 1204 110 1215 108 c 256
 1224 106 1239 105 1250 105 c 256
 1410 105 1500 230 1500 420 c 256
 1500 610 1419 805 1213 805 c 256
 1024 805 961 639 933 455 c 256
 891 178 796 -20 508 -20 c 256
 261 -20 110 158 110 450 c 256
1600 -445 m 256
 1590 -611 1376 -740 1135 -740 c 256
 840 -740 710 -587 710 -435 c 256
 710 -232 921.5 -121 1195 -141 c 256
 1205.02 -141.733 1215 -133 1215 -124 c 258
 1215 30 l 257
 1325 30 l 257
 1325 -227 l 258
 1325 -238 1315.98 -246.145 1306 -245 c 256
 1009.5 -211 835 -271 835 -435 c 256
 835 -541 910.998 -633.13 1140 -635 c 256
 1363.01 -636.821 1515 -535 1525 -445 c 256
 1526 -438 1532 -428 1543 -428 c 258
 1583 -428 l 258
 1592 -428 1601 -436 1600 -445 c 256
EndSplineSet
Fore
SplineSet
110 450 m 256
 110 722 220 929 465 930 c 256
 497 930 534 925 565 912 c 256
 575 908 578 896 573 887 c 258
 527 808 l 258
 523 800 511 800 500 802 c 256
 491 804 476 805 465 805 c 256
 305 805 235 640 235 450 c 256
 235 220 362 105 508 105 c 256
 694 105 770 238 803 455 c 256
 839 689 912 930 1213 930 c 256
 1510 930 1625 672 1625 420 c 256
 1625 158 1495 -19 1250 -20 c 256
 1218 -20 1181 -15 1150 -2 c 256
 1140 2 1137 14 1142 23 c 258
 1188 102 l 258
 1192 110 1204 110 1215 108 c 256
 1224 106 1239 105 1250 105 c 256
 1410 105 1500 230 1500 420 c 256
 1500 610 1419 805 1213 805 c 256
 1024 805 961 639 933 455 c 256
 891 178 796 -20 508 -20 c 256
 261 -20 110 158 110 450 c 256
841 -220 m 4
 540.360351562 -220 420 -306.033203125 420 -420 c 260
 420 -536 550.993164062 -628.96484375 920 -630 c 260
 1323.01278226 -631.130551415 1475 -495 1525 -405 c 260
 1528.43359375 -398.818359375 1532 -388 1543 -388 c 262
 1583 -388 l 262
 1592 -388 1603.07816116 -396.483754113 1600 -405 c 260
 1540 -571 1376 -740 915 -740 c 260
 390 -740 295 -572 295 -420 c 260
 295 -266.065429688 426.208007812 -115.1171875 825.103515625 -115.1171875 c 4
 1007 -115.1171875 1088.47460938 -133.213867188 1195 -141 c 260
 1205.02050781 -141.732421875 1215 -133 1215 -124 c 262
 1215 30 l 261
 1325 30 l 261
 1325 -237 l 262
 1325 -248 1315.98046875 -256.145507812 1306 -255 c 260
 1170.34472656 -239.435546875 1042 -220 841 -220 c 4
EndSplineSet
EndChar

StartChar: uni19BD
Encoding: 6589 6589 77
GlifName: uni19B_D_
Width: 1710
VWidth: 0
GlyphClass: 2
Flags: W
LayerCount: 2
Back
Fore
SplineSet
1560 890 m 258
 1560 -305 l 258
 1560 -563 1443 -740 1195 -740 c 256
 937 -740 850 -563 850 -305 c 258
 850 170 l 257
 975 357 l 257
 975 -305 l 258
 975 -497 1036 -625 1195 -625 c 256
 1354 -625 1435 -497 1435 -305 c 258
 1435 890 l 258
 1435 900 1442 910 1453 910 c 258
 1543 910 l 258
 1552 910 1560 900 1560 890 c 258
555 930 m 256
 832 930 995 733 995 450 c 256
 995 187 842 -20 555 -20 c 256
 258 -20 110 188 110 450 c 256
 110 722 268 930 555 930 c 256
555 805 m 256
 354 805 235 671 235 450 c 256
 235 230 354 105 555 105 c 256
 756 105 870 240 870 450 c 256
 870 671 757 805 555 805 c 256
EndSplineSet
EndChar

StartChar: uni19C5
Encoding: 6597 6597 78
GlifName: uni19C_5
Width: 1805
VWidth: 0
GlyphClass: 2
Flags: W
LayerCount: 2
Back
Fore
SplineSet
945 530 m 256
 945 520 937 510 928 510 c 258
 878 510 l 258
 867 510 860 520 860 530 c 256
 860 579 871 635 881 672 c 256
 922 826 1083 930 1260 930 c 256
 1527 930 1695 722 1695 460 c 256
 1695 248 1605 -19 1360 -20 c 256
 1328 -20 1291 -15 1260 -2 c 256
 1250 2 1247 14 1252 23 c 258
 1298 102 l 258
 1302 110 1314 110 1325 108 c 256
 1334 106 1349 105 1360 105 c 256
 1520 105 1570 316 1570 460 c 256
 1570 660 1426 805 1260 805 c 256
 1093 805 945 701 945 530 c 256
860 530 m 256
 860 701 712 805 545 805 c 256
 379 805 235 660 235 460 c 256
 235 320 285 105 445 105 c 256
 456 105 471 106 480 108 c 256
 491 110 503 110 507 102 c 258
 553 23 l 258
 558 14 555 2 545 -2 c 256
 514 -15 477 -20 445 -20 c 256
 200 -19 110 248 110 460 c 256
 110 722 278 930 545 930 c 256
 722 930 883 826 924 672 c 256
 934 635 945 579 945 530 c 256
 945 520 938 510 927 510 c 258
 877 510 l 258
 868 510 860 520 860 530 c 256
1675 -525 m 257
 1550 -525 l 257
 1550 -460 1506 -420 1440 -420 c 256
 1374 -420 1335 -460 1335 -525 c 256
 1335 -590 1374 -635 1440 -635 c 256
 1506 -635 1550 -590 1550 -525 c 258
 1550 234 l 257
 1675 470 l 257
 1675 -525 l 258
 1675 -652 1569 -740 1440 -740 c 256
 1321 -740 1230 -653 1230 -525 c 256
 1230 -394 1320 -315 1430 -315 c 256
 1544 -315 1655 -450 1675 -525 c 257
EndSplineSet
EndChar

StartChar: uni19BE
Encoding: 6590 6590 79
GlifName: uni19B_E_
Width: 1634
VWidth: 0
GlyphClass: 2
Flags: W
LayerCount: 2
Back
Fore
SplineSet
855 95 m 257
 1112 95 1108 485 1069 830 c 256
 1015 1310 1047 1650 1324 1650 c 256
 1551 1650 1599 1460 1549 1230 c 256
 1547 1220 1541 1210 1532 1210 c 258
 1492 1211 l 258
 1481 1211 1474 1220 1474 1230 c 256
 1474 1389 1463 1555 1324 1555 c 256
 1158 1555 1145 1244 1194 830 c 256
 1246 386 1205 -20 855 -20 c 257
 606 -22 365 322 365 590 c 256
 365 793 419 930 600 930 c 257
 600 805 l 257
 515 805 490 699 490 575 c 256
 490 382 663 93 855 95 c 257
80 200 m 256
 79 209 77 218 86 224 c 258
 164 269 l 258
 171 273 189 271 190 260 c 256
 202 167 261 96 345 95 c 256
 537 93 710 382 710 575 c 256
 710 699 685 805 600 805 c 257
 600 930 l 257
 781 930 835 793 835 590 c 256
 835 322 594 -22 345 -20 c 256
 210 -19 104 75 80 200 c 256
EndSplineSet
EndChar

StartChar: uni1989
Encoding: 6537 6537 80
GlifName: uni1989
Width: 1786
VWidth: 0
GlyphClass: 2
Flags: W
LayerCount: 2
Back
Fore
SplineSet
1551 450 m 256
 1551 640 1441 805 1231 805 c 256
 1191 805 1142 795 1116 780 c 256
 1107 775 1093 778 1089 786 c 258
 1043 865 l 258
 1038 874 1042 885 1051 890 c 256
 1102 919 1174 930 1231 930 c 256
 1526 929 1676 712 1676 450 c 256
 1676 188 1528 -20 1251 -20 c 256
 1024 -20 892 124 821 288 c 257
 930 450 l 257
 915 243 1084 105 1251 105 c 256
 1447 105 1551 250 1551 450 c 256
500 -20 m 256
 353 -20 227 38 120 175 c 256
 112 185 116 199 126 207 c 258
 195 261 l 258
 205 269 218 265 225 255 c 256
 306 148 389 105 500 105 c 256
 657 105 805 198 805 450 c 256
 805 699 662 805 490 805 c 256
 379 805 296 762 215 655 c 256
 208 645 196 642 185 649 c 257
 116 703 l 257
 105 710 102 725 110 735 c 256
 217 872 343 930 490 930 c 256
 755 930 930 738 930 450 c 256
 930 146 756 -20 500 -20 c 256
EndSplineSet
EndChar

StartChar: uni19C1
Encoding: 6593 6593 81
GlifName: uni19C_1
Width: 1185
VWidth: 0
GlyphClass: 2
Flags: W
LayerCount: 2
Back
Fore
SplineSet
595 930 m 256
 902 930 1075 733 1075 450 c 256
 1075 187 912 -20 595 -20 c 256
 268 -20 110 188 110 450 c 256
 110 722 278 930 595 930 c 256
595 805 m 256
 359 805 235 651 235 450 c 256
 235 250 369 105 595 105 c 256
 822 105 950 260 950 450 c 256
 950 651 812 805 595 805 c 256
1055 -525 m 257
 930 -525 l 257
 930 -460 886 -420 820 -420 c 256
 754 -420 715 -460 715 -525 c 256
 715 -590 754 -635 820 -635 c 256
 886 -635 930 -590 930 -525 c 258
 930 234 l 257
 1055 470 l 257
 1055 -525 l 258
 1055 -652 949 -740 820 -740 c 256
 701 -740 610 -653 610 -525 c 256
 610 -394 700 -315 810 -315 c 256
 924 -315 1035 -450 1055 -525 c 257
EndSplineSet
EndChar

StartChar: uni19C7
Encoding: 6599 6599 82
GlifName: uni19C_7
Width: 1180
VWidth: 0
GlyphClass: 2
Flags: W
LayerCount: 2
Back
Fore
SplineSet
590 -20 m 256
 312 -20 110 175 110 480 c 256
 110 687 198 833 335 930 c 256
 345 937 359 934 367 924 c 258
 416 860 l 258
 424 850 420 836 410 830 c 256
 313 769 235 651 235 480 c 256
 235 283 356 105 590 105 c 256
 824 105 945 283 945 480 c 256
 945 651 872 764 775 825 c 256
 765 831 761 845 769 855 c 257
 813 924 l 257
 821 934 835 937 845 930 c 256
 982 833 1070 687 1070 480 c 256
 1070 175 868 -20 590 -20 c 256
1050 -525 m 257
 925 -525 l 257
 925 -460 881 -420 815 -420 c 256
 749 -420 710 -460 710 -525 c 256
 710 -590 749 -635 815 -635 c 256
 881 -635 925 -590 925 -525 c 258
 925 234 l 257
 1050 470 l 257
 1050 -525 l 258
 1050 -652 944 -740 815 -740 c 256
 696 -740 605 -653 605 -525 c 256
 605 -394 695 -315 805 -315 c 256
 919 -315 1030 -450 1050 -525 c 257
EndSplineSet
EndChar

StartChar: uni19A2
Encoding: 6562 6562 83
GlifName: uni19A_2
Width: 1180
VWidth: 0
GlyphClass: 2
Flags: W
LayerCount: 2
Back
Fore
SplineSet
590 -20 m 256
 312 -20 110 175 110 480 c 256
 110 687 198 829 335 926 c 256
 338.747 928.623 343 930 347 930 c 256
 354 930 361.998 926.253 367 920 c 258
 416 856 l 258
 424 846 420 832 410 826 c 256
 313 765 235 651 235 480 c 256
 235 283 356 105 590 105 c 256
 824 105 945 283 945 480 c 256
 945 651 872 760 775 821 c 256
 765 827 761 841 769 851 c 257
 813 920 l 257
 817.956 926.195 825 930 832 930 c 256
 836 930 841.195 928.663 845 926 c 256
 982 829 1070 687 1070 480 c 256
 1070 175 868 -20 590 -20 c 256
EndSplineSet
EndChar

StartChar: uni1998
Encoding: 6552 6552 84
GlifName: uni1998
Width: 1786
VWidth: 0
GlyphClass: 2
Flags: W
LayerCount: 2
Back
Fore
SplineSet
1231 805 m 256
 1042 805 916 700 856 606 c 257
 786 715 l 257
 868 824 1034 930 1231 930 c 256
 1508 930 1676 742 1676 450 c 256
 1676 208 1546 -19 1251 -20 c 256
 1194 -20 1122 -9 1071 20 c 256
 1062 25 1058 36 1063 45 c 258
 1109 124 l 258
 1113 132 1127 135 1136 130 c 256
 1162 115 1211 105 1251 105 c 256
 1461 105 1551 270 1551 450 c 256
 1551 670 1407 805 1231 805 c 256
500 -20 m 256
 353 -20 227 38 120 175 c 256
 112 185 116 199 126 207 c 258
 195 261 l 258
 205 269 218 265 225 255 c 256
 306 148 389 105 500 105 c 256
 657 105 805 198 805 450 c 256
 805 699 662 805 490 805 c 256
 379 805 296 762 215 655 c 256
 208 645 196 642 185 649 c 257
 116 703 l 257
 105 710 102 725 110 735 c 256
 217 872 343 930 490 930 c 256
 755 930 930 738 930 450 c 256
 930 146 756 -20 500 -20 c 256
EndSplineSet
EndChar

StartChar: uni19BB
Encoding: 6587 6587 85
GlifName: uni19B_B_
Width: 1691
VWidth: 0
GlyphClass: 2
Flags: W
LayerCount: 2
Back
Fore
SplineSet
500 -20 m 256
 353 -20 217 33 110 175 c 256
 102 185 105 200 116 207 c 258
 185 251 l 258
 196 258 207 255 215 245 c 256
 296 143 379 105 500 105 c 256
 707 105 855 228 855 450 c 256
 855 679 692 805 510 805 c 256
 379 805 296 742 215 635 c 256
 208 625 196 622 185 629 c 258
 116 673 l 258
 105 680 102 695 110 705 c 256
 227 852 343 930 510 930 c 256
 805 930 980 718 980 450 c 256
 980 176 796 -20 500 -20 c 256
1541 890 m 258
 1541 -305 l 258
 1541 -563 1424 -740 1176 -740 c 256
 918 -740 831 -563 831 -305 c 258
 831 148 l 257
 956 392 l 257
 956 -305 l 258
 956 -497 1017 -625 1176 -625 c 256
 1335 -625 1416 -497 1416 -305 c 258
 1416 890 l 258
 1416 900 1423 910 1434 910 c 258
 1524 910 l 258
 1533 910 1541 900 1541 890 c 258
EndSplineSet
EndChar

StartChar: uni19B9
Encoding: 6585 6585 86
GlifName: uni19B_9
Width: 1145
VWidth: 0
GlyphClass: 2
Flags: W
LayerCount: 2
Back
Fore
SplineSet
625 1350 m 258
 625 905 l 257
 520 905 l 257
 520 1350 l 258
 520 1360 527 1370 538 1370 c 258
 608 1370 l 258
 617 1370 625 1360 625 1350 c 258
866 425 m 257
 865 700 712 815 575 815 c 256
 439 815 277 702 276 425 c 257
 241 635 l 257
 271 836 427 930 575 930 c 256
 719 930 881 836 906 635 c 257
 866 425 l 257
575 1650 m 256
 882 1650 1015 1333 1015 810 c 256
 1015 307 892 -20 575 -20 c 256
 248 -20 130 308 130 810 c 256
 130 1322 258 1650 575 1650 c 256
575 1540 m 256
 339 1540 255 1251 255 810 c 256
 255 370 349 105 575 105 c 256
 802 105 890 380 890 810 c 256
 890 1251 792 1540 575 1540 c 256
EndSplineSet
EndChar

StartChar: uni19BF
Encoding: 6591 6591 87
GlifName: uni19B_F_
Width: 1730
VWidth: 0
GlyphClass: 2
Flags: W
LayerCount: 2
Back
Fore
SplineSet
625 1350 m 258
 625 905 l 257
 520 905 l 257
 520 1350 l 258
 520 1360 527 1370 538 1370 c 258
 608 1370 l 258
 617 1370 625 1360 625 1350 c 258
866 425 m 257
 865 700 712 815 575 815 c 256
 439 815 277 702 276 425 c 257
 241 635 l 257
 271 836 427 930 575 930 c 256
 719 930 881 836 906 635 c 257
 866 425 l 257
575 1650 m 256
 882 1650 1015 1333 1015 810 c 256
 1015 307 892 -20 575 -20 c 256
 248 -20 130 308 130 810 c 256
 130 1322 258 1650 575 1650 c 256
575 1540 m 256
 339 1540 255 1251 255 810 c 256
 255 370 349 105 575 105 c 256
 802 105 890 380 890 810 c 256
 890 1251 792 1540 575 1540 c 256
1580 890 m 258
 1580 -305 l 258
 1580 -563 1458 -740 1210 -740 c 256
 952 -740 860 -563 860 -305 c 258
 860 291 l 257
 985 770 l 257
 985 -305 l 258
 985 -497 1051 -625 1210 -625 c 256
 1369 -625 1455 -497 1455 -305 c 258
 1455 890 l 258
 1455 900 1462 910 1473 910 c 258
 1563 910 l 258
 1572 910 1580 900 1580 890 c 258
EndSplineSet
EndChar

StartChar: uni19B6
Encoding: 6582 6582 88
GlifName: uni19B_6
Width: 2539
VWidth: 0
GlyphClass: 2
Flags: W
LayerCount: 2
Back
Fore
SplineSet
2125 140 m 256
 2125 261 2185 384 2185 510 c 256
 2185 670 2091 805 1855 805 c 256
 1645 805 1495 638 1495 395 c 256
 1495 236 1587 105 1705 105 c 256
 1728 105 1747 112 1770 123 c 256
 1779 127 1793 125 1797 117 c 258
 1843 38 l 258
 1848 29 1845 18 1835 13 c 256
 1791 -9 1747 -20 1705 -20 c 256
 1503 -20 1370 159.992 1370 395 c 256
 1370 681 1540 930 1855 930 c 256
 2182 930 2310 732 2310 510 c 256
 2310 369 2240 239 2240 150 c 256
 2240 111 2266 80 2300 80 c 256
 2348 80 2392 137 2400 185 c 256
 2402 194 2417 196 2424 190 c 258
 2464 151 l 258
 2470 146 2468 135 2465 125 c 256
 2446 49 2390 -20 2300 -20 c 256
 2194 -20 2125 52 2125 140 c 256
875 140 m 256
 875 261 935 384 935 510 c 256
 935 670 841 805 605 805 c 256
 395 805 245 638 245 395 c 256
 245 236 337 105 455 105 c 256
 478 105 497 112 520 123 c 256
 529 127 543 125 547 117 c 258
 593 38 l 258
 598 29 595 18 585 13 c 256
 541 -9 497 -20 455 -20 c 256
 253 -20 120 159.992 120 395 c 256
 120 681 290 930 605 930 c 256
 932 930 1060 732 1060 510 c 256
 1060 369 990 239 990 150 c 256
 990 111 1016 80 1050 80 c 256
 1098 80 1142 137 1150 185 c 256
 1152 194 1167 196 1174 190 c 258
 1214 151 l 258
 1220 146 1218 135 1215 125 c 256
 1196 49 1140 -20 1050 -20 c 256
 944 -20 875 52 875 140 c 256
EndSplineSet
EndChar

StartChar: uni1994
Encoding: 6548 6548 89
GlifName: uni1994
Width: 1457
VWidth: 0
GlyphClass: 2
Flags: W
LayerCount: 2
Back
Fore
SplineSet
575 -20 m 256
 311 -20 110 184 110 480 c 256
 110 691 191 849 370 930 c 256
 380 934 391 933 396 924 c 258
 444 846 l 258
 449 838 445 823 435 820 c 256
 300 772 235 653 235 480 c 256
 235 283 353 105 575 105 c 256
 922 105 934.311 466.869 897 770 c 256
 828.912 1323.17 864 1650 1141 1650 c 256
 1368 1650 1420 1479 1370 1229 c 256
 1368 1219 1363 1209 1354 1209 c 258
 1314 1210 l 258
 1303 1210 1296 1219 1296 1229 c 256
 1296 1418 1280 1555 1141 1555 c 256
 988 1555 958.27 1274.14 1023 770 c 256
 1073.24 378.75 995 -20 575 -20 c 256
EndSplineSet
EndChar

StartChar: uni198A
Encoding: 6538 6538 90
GlifName: uni198A_
Width: 1434
VWidth: 0
GlyphClass: 2
Flags: W
LayerCount: 2
Back
Fore
SplineSet
556 -20 m 256
 291 -20 120 67 120 265 c 256
 120 402 260 506 386 506 c 256
 405 506 438 506 450 506 c 256
 473 506 496 494 496 472 c 256
 496 450 472 432 450 432 c 256
 315 433 246 369 246 275 c 256
 246 143 361 105 556 105 c 256
 903 105 914.311 466.869 877 770 c 256
 808.912 1323.17 844 1650 1121 1650 c 256
 1348 1650 1400 1480 1350 1230 c 256
 1348 1220 1343 1210 1334 1210 c 258
 1294 1211 l 258
 1283 1211 1276 1220 1276 1230 c 256
 1276 1419 1260 1555 1121 1555 c 256
 968 1555 938.27 1274.14 1003 770 c 256
 1053.24 378.75 976 -20 556 -20 c 256
498 430 m 256
 287 430 120 499 120 680 c 256
 120 815 223 930 420 930 c 256
 511 930 569 904 600 881 c 256
 608 875 613 866 608 857 c 258
 562 783 l 258
 557 775 544 771 534 776 c 256
 517 785 490 805 420 805 c 256
 301 805 246 744 246 680 c 256
 246 593 282 515 498 515 c 256
 508 515 518 508 518 497 c 258
 518 447 l 258
 518 438 508 430 498 430 c 256
EndSplineSet
EndChar

StartChar: uni198E
Encoding: 6542 6542 91
GlifName: uni198E_
Width: 1851
VWidth: 0
GlyphClass: 2
Flags: W
LayerCount: 2
Back
Fore
SplineSet
555 930 m 256
 832 930 995 733 995 450 c 256
 995 187 842 -20 555 -20 c 256
 258 -20 110 188 110 450 c 256
 110 722 268 930 555 930 c 256
555 805 m 256
 349 805 235 651 235 450 c 256
 235 250 359 105 555 105 c 256
 752 105 870 260 870 450 c 256
 870 651 742 805 555 805 c 256
1296 805 m 256
 1107 805 981 700 921 606 c 257
 851 715 l 257
 933 824 1099 930 1296 930 c 256
 1573 930 1741 742 1741 450 c 256
 1741 208 1611 -19 1316 -20 c 256
 1259 -20 1187 -9 1136 20 c 256
 1127 25 1123 36 1128 45 c 258
 1174 124 l 258
 1178 132 1192 135 1201 130 c 256
 1227 115 1276 105 1316 105 c 256
 1526 105 1616 270 1616 450 c 256
 1616 670 1472 805 1296 805 c 256
EndSplineSet
EndChar

StartChar: uni1988
Encoding: 6536 6536 92
GlifName: uni1988
Width: 1115
VWidth: 0
GlyphClass: 2
Flags: W
LayerCount: 2
Back
Fore
SplineSet
462 495 m 257
 462 410 l 257
 367 410 245 364 245 270 c 256
 245 158 350 105 515 105 c 256
 737 105 880 267 880 460 c 256
 880 653 747 805 515 805 c 256
 360 805 245 762 245 640 c 256
 245 546 367 493 462 494 c 256
 472 494 482 487 482 476 c 258
 482 426 l 258
 482 417 472 409 462 409 c 256
 327 409 120 466 120 650 c 256
 120 828 280 930 515 930 c 256
 824 930 1005 733 1005 455 c 256
 1005 177 804 -20 515 -20 c 256
 270 -20 120 82 120 260 c 256
 120 424 328 495 462 495 c 257
EndSplineSet
EndChar

StartChar: uni1992
Encoding: 6546 6546 93
GlifName: uni1992
Width: 1290
VWidth: 0
GlyphClass: 2
Flags: W
LayerCount: 2
Back
Fore
SplineSet
606 332 m 257
 691 332 l 257
 691 237 746 105 850 105 c 256
 982 105 1055 210 1055 385 c 256
 1055 637 883 805 640 805 c 256
 397 805 235 637 235 385 c 256
 235 210 308 105 440 105 c 256
 544 105 608 237 607 332 c 256
 607 342 614 352 625 352 c 258
 675 352 l 258
 684 352 692 342 692 332 c 256
 692 197 644 -20 430 -20 c 256
 232 -20 110 140 110 385 c 256
 110 703 317 930 645 930 c 256
 973 930 1180 704 1180 385 c 256
 1180 140 1058 -20 860 -20 c 256
 666 -20 606 198 606 332 c 257
EndSplineSet
EndChar

StartChar: uni1999
Encoding: 6553 6553 94
GlifName: uni1999
Width: 1180
VWidth: 0
GlyphClass: 2
Flags: W
LayerCount: 2
Back
Fore
SplineSet
590 -20 m 256
 312 -20 110 175 110 480 c 256
 110 687 198 829 335 926 c 256
 338.747 928.623 343 930 347 930 c 256
 354 930 361.998 926.253 367 920 c 258
 416 856 l 258
 424 846 420 832 410 826 c 256
 313 765 235 651 235 480 c 256
 235 283 356 105 590 105 c 256
 824 105 945 283 945 480 c 256
 945 651 872 760 775 821 c 256
 765 827 761 841 769 851 c 257
 813 920 l 257
 817.956 926.195 825 930 832 930 c 256
 836 930 841.195 928.663 845 926 c 256
 982 829 1070 687 1070 480 c 256
 1070 175 868 -20 590 -20 c 256
590 -740 m 256
 353 -740 174 -584 124 -442 c 256
 120.423 -431.841 128 -420 138 -416 c 258
 170 -405 l 258
 178 -402 190.342 -409.836 195 -420 c 256
 250 -540 384 -635 590 -635 c 256
 807 -635 965 -430 965 -140 c 256
 965 165 787 360 590 360 c 256
 479 360 365 296 292 193 c 257
 207 271 l 257
 300 391 435 460 590 460 c 256
 877 460 1090 223 1090 -140 c 256
 1090 -503 897 -740 590 -740 c 256
EndSplineSet
EndChar

StartChar: uni19C4
Encoding: 6596 6596 95
GlifName: uni19C_4
Width: 1180
VWidth: 0
GlyphClass: 2
Flags: W
LayerCount: 2
Back
Fore
SplineSet
590 -20 m 256
 312 -20 110 175 110 480 c 256
 110 687 198 828 335 925 c 256
 345 932 359 929 367 919 c 258
 416 855 l 258
 424 845 420 831 410 825 c 256
 313 764 235 651 235 480 c 256
 235 283 356 105 590 105 c 256
 824 105 945 283 945 480 c 256
 945 651 872 759 775 820 c 256
 765 826 761 840 769 850 c 257
 813 919 l 257
 821 929 835 932 845 925 c 256
 982 828 1070 687 1070 480 c 256
 1070 175 868 -20 590 -20 c 256
1090 -140 m 256
 1090 -495 879 -740 540 -740 c 256
 387.997 -740 165 -676 165 -475 c 256
 165 -356 252 -265 380 -265 c 256
 510 -265 590 -355 590 -465 c 256
 590 -522 555 -589 507 -635 c 257
 540 -635 l 258
 741 -635 965 -486 965 -140 c 256
 965 165 787 360 590 360 c 256
 479 360 365 296 292 193 c 257
 207 271 l 257
 300 391 435 460 590 460 c 256
 877 460 1090 223 1090 -140 c 256
270 -475 m 256
 270 -541 315 -585 380 -585 c 256
 447 -585 485 -540 485 -475 c 256
 485 -409 445 -370 380 -370 c 256
 315 -370 270 -409 270 -475 c 256
EndSplineSet
EndChar

StartChar: uni1983
Encoding: 6531 6531 96
GlifName: uni1983
Width: 1185
VWidth: 0
GlyphClass: 2
Flags: W
LayerCount: 2
Back
Fore
SplineSet
128 -442 m 256
 123.671 -432.139 132 -420 142 -416 c 258
 174 -405 l 258
 182 -402 194.291 -411.179 199 -420 c 256
 270 -553 383 -635 573 -635 c 256
 820 -635 970 -430 970 -170 c 256
 970 151 801 350 504 350 c 256
 367 350 234 303 234 215 c 256
 234 137 367 90 499 90 c 256
 756 90 950 228 950 470 c 256
 950 689 806 805 574 805 c 256
 413 805 290 732 229 625 c 256
 223 614 209 611 199 619 c 258
 130 673 l 258
 120 681 117 694 124 705 c 256
 211 852 367 930 574 930 c 256
 909 930 1075 728 1075 470 c 256
 1075 166 845 -20 499 -20 c 256
 305 -20 124 72 124 215 c 256
 124 379 305 460 504 460 c 256
 871 460 1095 233 1095 -170 c 256
 1095 -503 900 -740 573 -740 c 256
 351 -740 200 -606 128 -442 c 256
EndSplineSet
EndChar

StartChar: uni1986
Encoding: 6534 6534 97
GlifName: uni1986
Width: 1250
VWidth: 0
GlyphClass: 2
Flags: W
LayerCount: 2
Back
Fore
SplineSet
110 420 m 256
 110 725 337 930 625 930 c 256
 939 930 1140 736 1140 430 c 256
 1140 209 1059 74 880 -17 c 256
 876.245 -18.909 872 -20 868 -20 c 256
 862 -20 857.044 -16.4799 854 -11 c 258
 806 67 l 258
 801 75 805.407 88.8789 815 93 c 256
 950 151 1015 247 1015 430 c 256
 1015 627 877 805 625 805 c 256
 376 805 235 622 235 420 c 256
 235 269 308 171 415 90 c 256
 425 83 428 71 421 60 c 257
 367 -9 l 257
 360.8 -16.0599 355 -20 348 -20 c 256
 344 -20 338.729 -17.9835 335 -15 c 256
 188 92 110 223 110 420 c 256
655 1555 m 256
 358 1555 260 1308.32 260 1050 c 256
 260 907.318 270 795.318 283 717 c 257
 167 604 l 257
 152 705.318 135 860.028 135 1050 c 256
 135 1362.32 268 1650 655 1650 c 256
 882 1650 1041 1504 1081 1382 c 256
 1084 1372 1077 1360 1067 1356 c 258
 1035 1345 l 258
 1027 1342 1014 1350 1010 1360 c 256
 965 1460 851 1555 655 1555 c 256
EndSplineSet
EndChar

StartChar: uni199D
Encoding: 6557 6557 98
GlifName: uni199D_
Width: 1815
VWidth: 0
GlyphClass: 2
Flags: W
LayerCount: 2
Back
Fore
SplineSet
665 1555 m 256
 368 1555 270 1308.32 270 1050 c 256
 270 907.318 280 795.318 293 717 c 257
 177 604 l 257
 162 705.318 145 860.028 145 1050 c 256
 145 1362.32 278 1650 665 1650 c 256
 892 1650 1051 1504 1091 1382 c 256
 1094 1372 1087 1360 1077 1356 c 258
 1045 1345 l 258
 1037 1342 1024 1350 1020 1360 c 256
 975 1460 861 1555 665 1555 c 256
955 530 m 256
 955 520 947 510 938 510 c 258
 888 510 l 258
 877 510 870 520 870 530 c 256
 870 579 881 635 891 672 c 256
 932 826 1093 930 1270 930 c 256
 1537 930 1705 722 1705 460 c 256
 1705 248 1615 -19 1370 -20 c 256
 1338 -20 1301 -15 1270 -2 c 256
 1260 2 1257 14 1262 23 c 258
 1308 102 l 258
 1312 110 1324 110 1335 108 c 256
 1344 106 1359 105 1370 105 c 256
 1530 105 1580 316 1580 460 c 256
 1580 660 1436 805 1270 805 c 256
 1103 805 955 701 955 530 c 256
870 530 m 256
 870 701 722 805 555 805 c 256
 389 805 245 660 245 460 c 256
 245 320 295 105 455 105 c 256
 466 105 481 106 490 108 c 256
 501 110 513 110 517 102 c 258
 563 23 l 258
 568 14 565 2 555 -2 c 256
 524 -15 487 -20 455 -20 c 256
 210 -19 120 248 120 460 c 256
 120 722 288 930 555 930 c 256
 732 930 893 826 934 672 c 256
 944 635 955 579 955 530 c 256
 955 520 948 510 937 510 c 258
 887 510 l 258
 878 510 870 520 870 530 c 256
EndSplineSet
EndChar

StartChar: uni19B3
Encoding: 6579 6579 99
GlifName: uni19B_3
Width: 1150
VWidth: 0
GlyphClass: 2
Flags: W
LayerCount: 2
Back
Fore
SplineSet
596 -635 m 256
 782 -635 916 -540 951 -290 c 256
 953 -279 968 -272 976 -275 c 258
 1008 -286 l 258
 1018 -290 1023 -302 1022 -312 c 256
 992 -584 833 -740 596 -740 c 256
 308 -740 130 -541 130 -250 c 256
 130 -47.6436 130 144 130 250 c 256
 130 265.033 146 269 153 263 c 256
 264 169 377 105 550 105 c 256
 727 105 915 208 915 450 c 256
 915 679 752 805 540 805 c 256
 399 805 301 752 220 635 c 256
 213.146 625.099 200 621 190 629 c 257
 121 673 l 257
 111 681 107.788 694.418 115 705 c 256
 222 862 353 930 540 930 c 256
 845 930 1040 738 1040 450 c 256
 1040 146 816 -20 550 -20 c 256
 434 -20 354 8 283 47 c 256
 276 51 264 46 265 38 c 257
 265 -21 264.986 -119.733 265 -250 c 257
 265 -503 410 -635 596 -635 c 256
EndSplineSet
EndChar

StartChar: uni1993
Encoding: 6547 6547 100
GlifName: uni1993
Width: 1190
VWidth: 0
GlyphClass: 2
Flags: W
LayerCount: 2
Back
Fore
SplineSet
580 -740 m 256
 353 -740 165 -584 135 -372 c 256
 134 -362 139 -350 149 -346 c 258
 181 -335 l 258
 189 -332 204 -339 206 -350 c 256
 241 -540 404 -635 580 -635 c 256
 817 -635 955 -470 955 -240 c 256
 955 -9 836 135 590 135 c 256
 433 135 263 45 157 -35 c 257
 147 -37 125 -9 135 -21 c 257
 135 315 l 258
 135 752 326 930 600 930 c 256
 908 930 1036 742 1050 515 c 256
 1051 503 1046 495 1036 495 c 258
 943 495 l 258
 931 495 926 502 925 515 c 256
 911 677 810 805 600 805 c 256
 384 805 260 657 260 305 c 258
 260 168 l 258
 260 157 269 144 279 150 c 256
 365 207 496 260 600 260 c 256
 930 260 1080 73 1080 -240 c 256
 1080 -543 887 -740 580 -740 c 256
EndSplineSet
EndChar

StartChar: uni19C3
Encoding: 6595 6595 101
GlifName: uni19C_3
Width: 1190
VWidth: 0
GlyphClass: 2
Flags: W
LayerCount: 2
Back
Fore
SplineSet
1075 -270 m 256
 1075 -573 857 -740 560 -740 c 257
 390 -741 150 -678 150 -477 c 257
 150 -358 235 -265 363 -265 c 256
 493 -265 573 -358 573 -467 c 256
 573 -521 544 -584 500 -627 c 257
 519 -632 543 -635 555 -635 c 256
 762 -635 950 -510 950 -270 c 256
 950 -9 831 135 585 135 c 256
 428 135 258 45 152 -35 c 257
 144 -31 136 -25 130 -20 c 257
 130 315 l 258
 130 752 321 930 595 930 c 256
 903 930 1031 742 1045 515 c 256
 1046 503 1041 495 1031 495 c 258
 938 495 l 258
 926 495 921 502 920 515 c 256
 906 677 805 805 595 805 c 256
 379 805 255 657 255 305 c 258
 255 168 l 258
 255 157 264 144 274 150 c 256
 360 207 491 260 595 260 c 256
 925 260 1075 73 1075 -270 c 256
255 -476 m 256
 255 -542 298 -586 363 -586 c 256
 430 -586 468 -541 468 -476 c 256
 468 -410 428 -370 363 -370 c 256
 298 -370 255 -410 255 -476 c 256
EndSplineSet
EndChar

StartChar: uni198F
Encoding: 6543 6543 102
GlifName: uni198F_
Width: 1175
VWidth: 0
GlyphClass: 2
Flags: W
LayerCount: 2
Back
Fore
SplineSet
487 480 m 256
 497 480 507 472 507 463 c 258
 507 413 l 258
 507 402 497 395 487 395 c 256
 331 395 245 317 245 230 c 256
 245 146 311 105 410 105 c 256
 480 105 528 121 545 130 c 256
 555 135 567 131 572 123 c 258
 618 49 l 258
 623 40 618 31 610 25 c 256
 579 2 501 -20 410 -20 c 256
 243 -20 120 85 120 230 c 256
 120 411 326 480 487 480 c 256
545 -740 m 256
 328 -740 194 -624 144 -522 c 256
 139 -513 148 -500 158 -496 c 258
 190 -485 l 258
 198 -482 209 -491 215 -500 c 256
 260 -570 369 -635 545 -635 c 256
 821 -635 940 -334 940 120 c 256
 940 597 820 805 545 805 c 256
 390 805 245 752 245 630 c 256
 245 556 341 480 487 480 c 256
 497 480 507 472 507 463 c 258
 507 413 l 258
 507 402 497 395 487 395 c 256
 343 395 120 454 120 630 c 256
 120 828 320 930 545 930 c 256
 905 930 1065 726 1065 120 c 256
 1065 -435 888 -740 545 -740 c 256
EndSplineSet
EndChar

StartChar: uni1991
Encoding: 6545 6545 103
GlifName: uni1991
Width: 1140
VWidth: 0
GlyphClass: 2
Flags: W
LayerCount: 2
Back
Fore
SplineSet
648 430 m 256
 638 430 628 438 628 447 c 258
 628 497 l 258
 628 508 638 515 648 515 c 256
 804 515 880 593 880 680 c 256
 880 754 804 805 725 805 c 256
 655 805 607 789 590 780 c 256
 580 775 568 779 563 787 c 258
 517 861 l 258
 512 870 517 879 525 885 c 256
 556 908 634 930 725 930 c 256
 882 930 1005 845 1005 690 c 256
 1005 509 809 430 648 430 c 256
595 1650 m 256
 822 1650 931 1514 971 1382 c 256
 974.028 1372.01 967 1360 957 1356 c 258
 925 1345 l 258
 917 1342 904 1350 900 1360 c 256
 855 1460 781 1555 595 1555 c 256
 339 1555 255 1311 255 790 c 256
 255 287 382 105 610 105 c 256
 775 105 895 153 895 280 c 256
 895 374 794 430 648 430 c 256
 638 430 628 438 628 447 c 258
 628 497 l 258
 628 508 638 515 648 515 c 256
 792 515 1020 456 1020 270 c 256
 1020 75 865 -20 610 -20 c 256
 294 -20 130 201 130 790 c 256
 130 1413 272 1650 595 1650 c 256
EndSplineSet
EndChar

StartChar: uni1981
Encoding: 6529 6529 104
GlifName: uni1981
Width: 1785
VWidth: 0
GlyphClass: 2
Flags: W
LayerCount: 2
Back
Fore
SplineSet
500 -20 m 256
 353 -20 227 38 120 175 c 256
 112 185 116 199 126 207 c 258
 195 261 l 258
 205 269 218 265 225 255 c 256
 306 148 389 105 500 105 c 256
 657 105 815 199 815 451 c 256
 815 690 662 805 490 805 c 256
 379 805 296 762 215 655 c 256
 208 645 196 642 185 649 c 257
 116 703 l 257
 105 710 102 725 110 735 c 256
 217 872 343 930 490 930 c 256
 755 930 940 739 940 451 c 256
 940 147 756 -20 500 -20 c 256
880.24 643 m 256
 872.24 634 860.24 629 850.24 637 c 258
 791.24 691 l 258
 781.793 699.646 777.24 713 785.24 723 c 257
 871.24 814 1004 930 1210 930 c 256
 1487 930 1675 772 1675 480 c 256
 1675 238 1512 41 1157 40 c 256
 1147 40 1137 48 1137 57 c 258
 1137 107 l 258
 1137 118 1147 125 1157 125 c 256
 1397 125 1550 300 1550 480 c 256
 1550 700 1386 805 1210 805 c 256
 1077 805 963.24 730 880.24 643 c 256
1680 -295 m 256
 1680 -598 1416 -740 1159 -740 c 256
 931 -740 753 -574 703 -442 c 256
 699 -432 707 -420 717 -416 c 258
 749 -405 l 258
 757 -402 769 -410 774 -420 c 256
 829 -530 963 -635 1159 -635 c 256
 1336 -635 1555 -545 1555 -295 c 256
 1555 -58 1344 40 1160 40 c 257
 1160 125 l 257
 1510 125 1680 -32 1680 -295 c 256
565.5 1110 m 256
 555.5 1110 545.5 1117 545.5 1128 c 258
 545.5 1198 l 258
 545.5 1207 555.5 1215 565.5 1215 c 256
 672.5 1215 860.5 1334 860.5 1505 c 256
 860.5 1515 868.5 1525 877.5 1525 c 258
 927.5 1525 l 258
 938.5 1525 945.5 1515 945.5 1505 c 256
 945.5 1310 741.5 1110 565.5 1110 c 256
1240.5 1110 m 256
 1064.5 1110 860.5 1310 860.5 1505 c 256
 860.5 1515 867.5 1525 878.5 1525 c 258
 928.5 1525 l 258
 937.5 1525 945.5 1515 945.5 1505 c 256
 945.5 1334 1133.5 1215 1240.5 1215 c 256
 1250.5 1215 1260.5 1207 1260.5 1198 c 258
 1260.5 1128 l 258
 1260.5 1117 1250.5 1110 1240.5 1110 c 256
EndSplineSet
EndChar

StartChar: uni1987
Encoding: 6535 6535 105
GlifName: uni1987
Width: 1225
VWidth: 0
GlyphClass: 2
Flags: W
LayerCount: 2
Back
Fore
SplineSet
590 -635 m 256
 856 -635 990 -319 990 145 c 256
 990 572 840 805 595 805 c 256
 355 805 235 598 235 395 c 256
 235 216 247 105 335 105 c 256
 375 105 421.648 146.164 463 201 c 256
 509 262 570 320 635 320 c 256
 748 320 825 242 825 130 c 256
 825 42 752 -21 711 -44 c 256
 702 -49 693 -45 687 -36 c 258
 640 42 l 258
 634 51 641 60 649 65 c 256
 666 75 700 90 700 130 c 256
 700 172 668 195 635 195 c 256
 607 195 568.65 146.315 529 92 c 256
 483.903 30.2236 415 -20 335 -20 c 256
 163 -20 110 136 110 395 c 256
 110 661 280 930 595 930 c 256
 905 930 1115 671 1115 145 c 256
 1115 -420 923 -740 590 -740 c 256
 353 -740 194 -584 154 -412 c 256
 152 -402 158 -390 168 -386 c 258
 200 -375 l 258
 208 -372 222 -379 225 -390 c 256
 270 -540 384 -635 590 -635 c 256
EndSplineSet
EndChar

StartChar: uni198B
Encoding: 6539 6539 106
GlifName: uni198B_
Width: 1260
VWidth: 0
GlyphClass: 2
Flags: W
LayerCount: 2
Back
Fore
SplineSet
1140 480 m 256
 1140 288 1007 51 742 50 c 256
 732 49.9623 722 58 722 67 c 258
 722 117 l 258
 722 128 732 135 742 135 c 256
 892 135 1015 270 1015 480 c 256
 1015 677 887 805 635 805 c 256
 386 805 235 622 235 420 c 256
 235 269 308 166 415 85 c 256
 425 78 428 66 421 55 c 257
 367 -14 l 257
 360 -25 345 -28 335 -20 c 256
 188 87 110 223 110 420 c 256
 110 725 347 930 635 930 c 256
 949 930 1140 766 1140 480 c 256
1160 -285 m 256
 1160 -598 895 -740 638 -740 c 256
 410 -740 232 -574 182 -442 c 256
 178 -432 186 -420 196 -416 c 258
 228 -405 l 258
 236 -402 248 -410 253 -420 c 256
 308 -530 442 -635 638 -635 c 256
 815 -635 1035 -545 1035 -285 c 256
 1035 -8 808 50 744 50 c 257
 744 135 l 257
 934 135 1160 28 1160 -285 c 256
EndSplineSet
EndChar

StartChar: uni19A1
Encoding: 6561 6561 107
GlifName: uni19A_1
Width: 1165
VWidth: 0
GlyphClass: 2
Flags: W
LayerCount: 2
Back
Fore
SplineSet
201 633 m 256
 193 624 181 619 171 627 c 258
 102 681 l 258
 92 689 88 703 96 713 c 257
 182 804 363 930 569 930 c 256
 876 930 1055 762 1055 480 c 256
 1055 248 891 41 536 40 c 256
 526 40 516 48 516 57 c 258
 516 107 l 258
 516 118 526 125 536 125 c 256
 776 125 930 300 930 480 c 256
 930 690 775 805 569 805 c 256
 436 805 284 720 201 633 c 256
1060 -295 m 256
 1060 -588 795 -740 538 -740 c 260
 310 -740 132 -574 82 -442 c 260
 78 -432 86 -420 96 -416 c 262
 128 -405 l 262
 136 -402 148 -410 153 -420 c 260
 208 -530 342 -635 538 -635 c 260
 715 -635 935 -535 935 -295 c 256
 935 -58 723 40 539 40 c 257
 539 125 l 257
 889 125 1060 -32 1060 -295 c 256
EndSplineSet
EndChar

StartChar: uni198C
Encoding: 6540 6540 108
GlifName: uni198C_
Width: 1260
VWidth: 0
GlyphClass: 2
Flags: W
LayerCount: 2
Back
Fore
SplineSet
655 1555 m 256
 358 1555 260 1308.32 260 1050 c 256
 260 907.318 270 795.318 283 717 c 257
 167 604 l 257
 152 705.318 135 860.028 135 1050 c 256
 135 1362.32 268 1650 655 1650 c 256
 882 1650 1041 1504 1081 1382 c 256
 1084 1372 1077 1360 1067 1356 c 258
 1035 1345 l 258
 1027 1342 1014 1350 1010 1360 c 256
 965 1460 851 1555 655 1555 c 256
1140 480 m 256
 1140 288 1007 51 742 50 c 256
 732 49.9623 722 58 722 67 c 258
 722 117 l 258
 722 128 732 135 742 135 c 256
 892 135 1015 270 1015 480 c 256
 1015 677 887 805 635 805 c 256
 386 805 235 622 235 420 c 256
 235 269 308 166 415 85 c 256
 425 78 428 66 421 55 c 257
 367 -14 l 257
 360 -25 345 -28 335 -20 c 256
 188 87 110 223 110 420 c 256
 110 725 347 930 635 930 c 256
 949 930 1140 766 1140 480 c 256
1160 -285 m 256
 1160 -598 895 -740 638 -740 c 256
 410 -740 232 -574 182 -442 c 256
 178 -432 186 -420 196 -416 c 258
 228 -405 l 258
 236 -402 248 -410 253 -420 c 256
 308 -530 442 -635 638 -635 c 256
 815 -635 1035 -545 1035 -285 c 256
 1035 -8 808 50 744 50 c 257
 744 135 l 257
 934 135 1160 28 1160 -285 c 256
EndSplineSet
EndChar

StartChar: uni19B7
Encoding: 6583 6583 109
GlifName: uni19B_7
Width: 1152
VWidth: 0
GlyphClass: 2
Flags: W
LayerCount: 2
Back
Fore
SplineSet
630 -20 m 256
 315 -20 110 162 110 440 c 256
 110 756 354 870 632 870 c 256
 642 870 652 863 652 852 c 258
 652 802 l 258
 652 793 642 785 632 785 c 256
 425 785 235 662 235 440 c 256
 235 211 418 105 630 105 c 256
 796 105 924 194 934 332 c 256
 935 342 939 349 947 351 c 257
 1040 351 l 258
 1051 351 1060 343 1060 333 c 256
 1057 154 888 -20 630 -20 c 256
625 1650 m 256
 852 1650 1011 1504 1051 1382 c 256
 1054 1372 1047 1360 1037 1356 c 258
 1005 1345 l 258
 997 1342 984 1350 980 1360 c 256
 935 1460 821 1555 625 1555 c 256
 395 1555 263 1396 263 1220 c 256
 263 1013 431 870 632 870 c 256
 642 870 652 863 652 852 c 258
 652 802 l 258
 652 793 642 785 632 785 c 256
 397 785 138 910 138 1221 c 256
 138 1467 333 1650 625 1650 c 256
EndSplineSet
EndChar

StartChar: uni19C6
Encoding: 6598 6598 110
GlifName: uni19C_6
Width: 1165
VWidth: 0
GlyphClass: 2
Flags: W
LayerCount: 2
Back
Fore
SplineSet
199.996 633 m 256
 191.996 624 179.996 619 169.996 627 c 258
 100.996 681 l 258
 90.9961 689 86.9961 703 94.9961 713 c 257
 180.996 804 361.996 930 567.996 930 c 256
 874.996 930 1054 762 1054 480 c 256
 1054 248 889.996 41 534.996 40 c 256
 524.996 40 514.996 48 514.996 57 c 258
 514.996 107 l 258
 514.996 118 524.996 125 534.996 125 c 256
 774.996 125 928.996 300 928.996 480 c 256
 928.996 690 773.996 805 567.996 805 c 256
 434.996 805 282.996 720 199.996 633 c 256
1059 -295 m 256
 1059 -578 832.996 -740 530.996 -740 c 256
 360.996 -740 108.996 -678 108.996 -477 c 256
 108.996 -358 205.996 -257 333.996 -257 c 256
 463.996 -257 553.996 -358 553.996 -467 c 256
 553.996 -521 524.996 -584 481.996 -627 c 257
 495.996 -632 518.996 -635 535.996 -635 c 256
 742.996 -635 933.996 -515 933.996 -295 c 256
 933.996 -58 721.996 40 537.996 40 c 257
 537.996 125 l 257
 887.996 125 1059 -32 1059 -295 c 256
223.996 -477 m 256
 223.996 -543 268.996 -587 333.996 -587 c 256
 400.996 -587 438.996 -542 438.996 -477 c 256
 438.996 -411 398.996 -372 333.996 -372 c 256
 268.996 -372 223.996 -411 223.996 -477 c 256
EndSplineSet
EndChar

StartChar: uni199A
Encoding: 6554 6554 112
GlifName: uni199A_
Width: 1150
VWidth: 0
GlyphClass: 2
Flags: W
LayerCount: 2
Back
Fore
SplineSet
965 1235 m 256
 1015 1095 1040 847 1040 640 c 256
 1040 194 864 -20 533 -20 c 256
 268 -20 120 82 120 270 c 256
 120 426 293 515 477 515 c 256
 487 515 497 508 497 497 c 258
 497 447 l 258
 497 438 487 430 477 430 c 256
 291 430 245 354 245 280 c 256
 245 158 348 105 533 105 c 256
 778 105 915 257 915 640 c 256
 915 785 910 976 880 1082 c 256
 877 1092 872 1103 861 1100 c 256
 812 1087 744 1070 580 1070 c 256
 315 1070 150 1162 150 1360 c 256
 150 1558 355 1650 580 1650 c 256
 757 1650 909 1599 1014 1529 c 256
 1022 1524 1026 1516 1020 1505 c 258
 1001 1470 l 258
 996 1461 982 1461 974 1466 c 256
 895 1516 741 1555 580 1555 c 256
 388 1555 265 1479 265 1360 c 256
 265 1231 388 1175 580 1175 c 256
 747 1175 837 1201 943 1249 c 256
 952 1253 961 1246 965 1235 c 256
477 430 m 256
 276 430 120 509 120 680 c 256
 120 815 233 930 400 930 c 256
 491 930 569 908 600 885 c 256
 608 879 613 870 608 861 c 258
 562 787 l 258
 557 779 545 775 535 780 c 256
 518 789 470 805 400 805 c 256
 301 805 245 744 245 670 c 256
 245 593 281 515 477 515 c 256
 487 515 497 508 497 497 c 258
 497 447 l 258
 497 438 487 430 477 430 c 256
EndSplineSet
EndChar

StartChar: uni19BA
Encoding: 6586 6586 113
GlifName: uni19B_A_
Width: 1245
VWidth: 0
GlyphClass: 2
Flags: W
LayerCount: 2
Back
Fore
SplineSet
590 -20 m 256
 304 -20 110 156 110 450 c 256
 110 728 313 930 598 930 c 256
 714 930 825 890 896 857 c 256
 903 854 913.448 857.957 914 866 c 256
 921 968 919.671 1117.04 909.234 1229 c 256
 887.234 1465 817 1555 688 1555 c 256
 539 1555 478 1407 478 1230 c 256
 478 1220 471 1211 460 1211 c 258
 420 1210 l 258
 411 1210 404.133 1220.06 403 1230 c 256
 373 1493 500 1650 698 1650 c 256
 906 1650 1005.23 1537 1034.23 1229 c 256
 1045.62 1108.12 1043 780 1033 649 c 256
 1032 634 1017 630 1010 636 c 256
 899 730 771 805 598 805 c 256
 416 805 235 689 235 450 c 256
 235 218 413 105 590 105 c 256
 771 105 854 148 935 245 c 256
 942.824 254.369 954 258 965 251 c 258
 1034 207 l 258
 1045 200 1047.88 185.093 1040 175 c 256
 933 38 797 -20 590 -20 c 256
EndSplineSet
EndChar

StartChar: uni19B4
Encoding: 6580 6580 114
GlifName: uni19B_4
Width: 1419
VWidth: 0
GlyphClass: 2
Flags: W
LayerCount: 2
Back
Fore
SplineSet
277.997 613 m 258
 277.997 410 l 257
 277.997 204 310.997 105 466.997 105 c 256
 589.997 105 758.997 200 871.997 330 c 257
 921.997 246 l 257
 781.997 88 611.997 -20 456.997 -20 c 256
 209.997 -20 152.997 131.91 152.997 370 c 258
 152.997 579 l 258
 152.997 693.998 126.997 794 92.9971 854 c 256
 87.9971 862 94.7598 874.133 103.997 879 c 258
 196.997 928 l 258
 204.441 932.192 213.997 924 219.997 914 c 256
 255.997 849 278.568 729.004 277.997 613 c 258
1113 -635 m 256
 1252 -635 1273 -483 1273 -294 c 256
 1273 -284 1280 -275 1291 -275 c 258
 1331 -275 l 258
 1340 -275 1346 -284 1348 -294 c 256
 1398 -544 1340 -740 1113 -740 c 256
 914.997 -740 847.997 -604 847.997 -250 c 258
 847.997 890 l 258
 847.997 900 854.997 910 865.997 910 c 258
 955.997 910 l 258
 964.997 910 972.997 900 972.997 890 c 258
 972.997 -250 l 258
 972.997 -507 993.997 -635 1113 -635 c 256
EndSplineSet
EndChar

StartChar: uni19BC
Encoding: 6588 6588 115
GlifName: uni19B_C_
Width: 1685
VWidth: 0
GlyphClass: 2
Flags: W
LayerCount: 2
Back
Fore
SplineSet
285.997 613 m 258
 284.997 410 l 257
 284.997 204 317.997 105 453.997 105 c 256
 576.997 105 715.997 200 828.997 330 c 257
 878.997 246 l 257
 738.997 88 598.997 -20 443.997 -20 c 256
 216.997 -20 159.997 131.91 159.997 370 c 258
 159.997 579 l 258
 159.997 693.998 133.997 794 99.9971 854 c 256
 94.9971 862 91.1191 875.615 100.997 879 c 258
 203.997 928 l 258
 211.712 931.67 220.997 924 226.997 914 c 256
 262.997 849 286.568 729.004 285.997 613 c 258
930 890 m 258
 930 -305 l 258
 930 -497 1001 -625 1160 -625 c 256
 1319 -625 1410 -497 1410 -305 c 258
 1410 890 l 258
 1410 900 1417 910 1428 910 c 258
 1518 910 l 258
 1527 910 1535 900 1535 890 c 258
 1535 -305 l 258
 1535 -563 1408 -740 1160 -740 c 256
 902 -740 805 -563 805 -305 c 258
 805 890 l 258
 805 900 812 910 823 910 c 258
 913 910 l 258
 922 910 930 900 930 890 c 258
EndSplineSet
EndChar

StartChar: uni19B0
Encoding: 6576 6576 116
GlifName: uni19B_0
Width: 1136
VWidth: 0
GlyphClass: 2
Flags: W
LayerCount: 2
Back
Fore
SplineSet
1026 745 m 256
 1026 597 948 490 836 490 c 256
 714 490 648 589 601 675 c 256
 552 764 479 805 381 805 c 256
 318 805 256 762 256 700 c 256
 256 647 306 620 356 620 c 256
 365 620 375 606 375 598 c 258
 375 506 l 258
 375 496 366 490 356 490 c 256
 210 490 129 572 131 700 c 256
 133 842 248 930 381 930 c 256
 546 930 646 843 725 693 c 256
 750 646 781 595 836 595 c 256
 899 595 951 650 951 745 c 256
 951 755 958 765 969 765 c 258
 1009 765 l 258
 1018 765 1026 755 1026 745 c 256
1026 235 m 256
 1026 87 948 -20 836 -20 c 256
 714 -20 648 79 601 165 c 256
 552 254 479 295 381 295 c 256
 318 295 256 252 256 190 c 256
 256 137 306 110 356 110 c 256
 365 110 375 96 375 88 c 258
 375 -4 l 258
 375 -14 366 -20 356 -20 c 256
 210 -20 129 62 131 190 c 256
 133 332 248 420 381 420 c 256
 546 420 646 333 725 183 c 256
 750 136 781 85 836 85 c 256
 899 85 951 140 951 235 c 256
 951 245 958 255 969 255 c 258
 1009 255 l 258
 1018 255 1026 245 1026 235 c 256
EndSplineSet
EndChar

StartChar: uni19C8
Encoding: 6600 6600 117
GlifName: uni19C_8
Width: 1114
VWidth: 0
GlyphClass: 2
Flags: W
LayerCount: 2
Back
Fore
SplineSet
566 105 m 256
 720 105 879 137 879 275 c 256
 879 383 741 430 604 430 c 256
 454 430 320 376 227 308 c 257
 174 411 l 257
 287 480 449 540 604 540 c 256
 813 540 994 449 994 275 c 256
 994 62 797 -20 566 -20 c 256
 280 -20 110 156 110 450 c 256
 110 718 251 930 576 930 c 256
 733 930 874 902 981 765 c 256
 988.883 754.907 985 742 975 733 c 258
 916 679 l 258
 906 670 893.825 675.632 886 685 c 256
 815 770 707 805 576 805 c 256
 354 805 235 679 235 450 c 256
 235 208 369 105 566 105 c 256
EndSplineSet
EndChar

StartChar: uni19C9
Encoding: 6601 6601 118
GlifName: uni19C_9
Width: 1143
VWidth: 0
GlyphClass: 2
Flags: W
LayerCount: 2
Back
Fore
SplineSet
586 -20 m 256
 251 -20 120 182 120 450 c 256
 120 744 290 930 576 930 c 256
 807 930 1004 838 1004 645 c 256
 1004 481 833 405 624 405 c 256
 449 405 302 440 189 504 c 257
 237 606 l 257
 330 543 474 515 624 515 c 256
 761 515 889 547 889 645 c 256
 889 763 730 805 576 805 c 256
 379 805 245 692 245 450 c 256
 245 221 354 105 586 105 c 256
 754.5 105 844.5 188 889.5 245 c 256
 895.696 252.849 910.214 256.897 919.5 251 c 258
 993.5 204 l 258
 1002.89 198.037 1002.41 185.064 996.5 177 c 256
 919.5 72 795.5 -20 586 -20 c 256
EndSplineSet
EndChar

StartChar: uni19D8
Encoding: 6616 6616 119
GlifName: uni19D_8
Width: 1405
VWidth: 0
GlyphClass: 2
Flags: W
LayerCount: 2
Back
Fore
SplineSet
90 0 m 256
 80 0 70 7 70 18 c 258
 70 108 l 258
 70 117 80 125 90 125 c 256
 427 125 650 288 650 840 c 256
 650 850 657 860 668 860 c 258
 738 860 l 258
 747 860 755 850 755 840 c 256
 755 208 488 0 90 0 c 256
1315 0 m 256
 917 0 650 208 650 840 c 256
 650 850 658 860 667 860 c 258
 737 860 l 258
 748 860 755 850 755 840 c 256
 755 288 978 125 1315 125 c 256
 1325 125 1335 117 1335 108 c 258
 1335 18 l 258
 1335 7 1325 0 1315 0 c 256
EndSplineSet
EndChar

StartChar: uni19A3
Encoding: 6563 6563 120
GlifName: uni19A_3
Width: 1465
VWidth: 0
GlyphClass: 2
Flags: W
LayerCount: 2
Back
Fore
SplineSet
948 -678 m 260
 1151 -498 1250 -207 1250 126 c 256
 1250 473 1040 805 572 805 c 256
 431 805 245 763 245 659 c 256
 245 589 295.5 552 435.5 516 c 256
 675.64 454.25 757 390 757 230 c 256
 757 72 638 -20 467 -20 c 256
 304 -20 196 75 196 204 c 256
 196 221 197 232 200 248 c 257
 203 257 213 264 224 260 c 258
 308 229 l 258
 317 226 318 214 318 205 c 256
 318 135 405 105 467 105 c 256
 557 105 632 148 632 230 c 256
 632 318 533.869 365.899 372.5 410 c 256
 211.5 454 120 511 120 662 c 256
 120 815 282 930 572 930 c 256
 1110 930 1365 549 1365 126 c 256
 1365 -247 1216 -534 997 -736 c 260
 990 -742 982 -740 976 -734 c 262
 944 -698 l 262
 939 -692 940 -686 948 -678 c 260
EndSplineSet
EndChar

StartChar: uni1997
Encoding: 6551 6551 121
GlifName: uni1997
Width: 1805
VWidth: 0
GlyphClass: 2
Flags: HW
LayerCount: 2
Back
SplineSet
1426.41601562 -439.34765625 m 260
 1251.26171875 -585.309570312 1008.24804688 -571.73828125 885.33203125 -502.341796875 c 260
 875.857421875 -497.220703125 874.321289062 -482.880859375 879.442382812 -473.405273438 c 262
 896.983398438 -444.469726562 l 262
 901.208984375 -437.04296875 915.548828125 -435.506835938 925.791992188 -439.98828125 c 260
 1038.46386719 -489.282226562 1208.625 -484.161132812 1359.19628906 -358.684570312 c 1284
945 530 m 260
 945 520 937 510 928 510 c 262
 878 510 l 262
 867 510 860 520 860 530 c 260
 860 579 871 635 881 672 c 260
 922 826 1083 930 1260 930 c 260
 1527 930 1695 722 1695 460 c 260
 1695 248 1605 -19 1360 -20 c 260
 1328 -20 1291 -15 1260 -2 c 260
 1250 2 1247 14 1252 23 c 262
 1298 102 l 262
 1302 110 1314 110 1325 108 c 260
 1334 106 1349 105 1360 105 c 260
 1520 105 1570 316 1570 460 c 260
 1570 660 1426 805 1260 805 c 260
 1093 805 945 701 945 530 c 260
860 530 m 260
 860 701 712 805 545 805 c 260
 379 805 235 660 235 460 c 260
 235 320 285 105 445 105 c 260
 456 105 471 106 480 108 c 260
 491 110 503 110 507 102 c 262
 553 23 l 262
 558 14 555 2 545 -2 c 260
 514 -15 477 -20 445 -20 c 260
 200 -19 110 248 110 460 c 260
 110 722 278 930 545 930 c 260
 722 930 883 826 924 672 c 260
 934 635 945 579 945 530 c 260
 945 520 938 510 927 510 c 262
 877 510 l 262
 868 510 860 520 860 530 c 260
777 -220 m 260
 549 -220 415 -293 415 -425 c 260
 415 -547 492 -615 920 -615 c 260
 1469 -615 1550 -417 1550 -295 c 262
 1550 174 l 261
 1675 480 l 261
 1675 -295 l 262
 1675 -513 1518 -740 920 -740 c 260
 402 -740 295 -610 295 -425 c 260
 295 -223 513 -105 777 -105 c 260
 1090 -105 1235 -207.982421875 1235 -370 c 260
 1235 -491 1116 -595 962 -550 c 260
 951.662109375 -546.979492188 937.403320312 -540.633789062 943 -530 c 262
 973 -473 l 262
 977.793945312 -463.891601562 992.84375 -461.514648438 1002 -464 c 260
 1072 -483 1125 -463.069335938 1125 -384 c 260
 1125 -279 1020 -220 777 -220 c 260
EndSplineSet
Fore
SplineSet
945 530 m 256
 945 520 937 510 928 510 c 258
 878 510 l 258
 867 510 860 520 860 530 c 256
 860 579 871 635 881 672 c 256
 922 826 1083 930 1260 930 c 256
 1527 930 1695 722 1695 460 c 256
 1695 248 1605 -19 1360 -20 c 256
 1328 -20 1291 -15 1260 -2 c 256
 1250 2 1247 14 1252 23 c 258
 1298 102 l 258
 1302 110 1314 110 1325 108 c 256
 1334 106 1349 105 1360 105 c 256
 1520 105 1570 316 1570 460 c 256
 1570 660 1426 805 1260 805 c 256
 1093 805 945 701 945 530 c 256
860 530 m 256
 860 701 712 805 545 805 c 256
 379 805 235 660 235 460 c 256
 235 320 285 105 445 105 c 256
 456 105 471 106 480 108 c 256
 491 110 503 110 507 102 c 258
 553 23 l 258
 558 14 555 2 545 -2 c 256
 514 -15 477 -20 445 -20 c 256
 200 -19 110 248 110 460 c 256
 110 722 278 930 545 930 c 256
 722 930 883 826 924 672 c 256
 934 635 945 579 945 530 c 256
 945 520 938 510 927 510 c 258
 877 510 l 258
 868 510 860 520 860 530 c 256
787 -220 m 260
 533 -220 405 -303 405 -425 c 260
 405 -547 532 -630 920 -630 c 260
 1469 -630 1550 -417 1550 -295 c 262
 1550 174 l 261
 1675 480 l 261
 1675 -295 l 262
 1675 -513 1518 -740 920 -740 c 260
 422 -740 295 -610 295 -425 c 260
 295 -233 463 -115 787 -115 c 260
 1110 -115 1255 -227.982421875 1255 -360 c 260
 1255 -451 1185.45019531 -556.026367188 954 -548 c 260
 943.05662737 -547.620499231 936 -546 937 -538 c 260
 938 -530 944 -500 944 -500 c 262
 945.294921875 -495.078125 948.347656409 -490.887678786 960 -491 c 260
 1098.99707031 -492.33984375 1155 -443.069335938 1155 -369 c 260
 1155 -284 1030 -220 787 -220 c 260
EndSplineSet
EndChar

StartChar: uni19A4
Encoding: 6564 6564 122
GlifName: uni19A_4
Width: 1165
VWidth: 0
GlyphClass: 2
Flags: W
LayerCount: 2
Back
Fore
SplineSet
230 1110 m 256
 220 1110 210 1117 210 1128 c 258
 210 1198 l 258
 210 1207 220 1215 230 1215 c 256
 337 1215 524 1334 524 1505 c 256
 524 1515 533 1525 542 1525 c 258
 592 1525 l 258
 603 1525 610 1515 610 1505 c 256
 610 1310 406 1110 230 1110 c 256
904 1110 m 256
 728 1110 524 1310 524 1505 c 256
 524 1515 531 1525 542 1525 c 258
 592 1525 l 258
 601 1525 610 1515 610 1505 c 256
 610 1334 797 1215 904 1215 c 256
 914 1215 924 1207 924 1198 c 258
 924 1128 l 258
 924 1117 914 1110 904 1110 c 256
201 633 m 256
 193 624 181 619 171 627 c 258
 102 681 l 258
 92 689 88 703 96 713 c 257
 182 804 363 930 569 930 c 256
 876 930 1055 762 1055 480 c 256
 1055 248 891 41 536 40 c 256
 526 40 516 48 516 57 c 258
 516 107 l 258
 516 118 526 125 536 125 c 256
 776 125 930 300 930 480 c 256
 930 690 775 805 569 805 c 256
 436 805 284 720 201 633 c 256
1060 -295 m 256
 1060 -588 795 -740 538 -740 c 256
 310 -740 132 -574 82 -442 c 256
 78 -432 86 -420 96 -416 c 258
 128 -405 l 258
 136 -402 148 -410 153 -420 c 256
 208 -530 342 -635 538 -635 c 256
 715 -635 935 -535 935 -295 c 256
 935 -58 723 40 539 40 c 257
 539 125 l 257
 889 125 1060 -32 1060 -295 c 256
EndSplineSet
EndChar

StartChar: uni19A5
Encoding: 6565 6565 123
GlifName: uni19A_5
Width: 1180
VWidth: 0
GlyphClass: 2
Flags: W
LayerCount: 2
Back
Fore
SplineSet
255 1110 m 256
 245 1110 235 1117 235 1128 c 258
 235 1198 l 258
 235 1207 245 1215 255 1215 c 256
 362 1215 549 1334 549 1505 c 256
 549 1515 558 1525 567 1525 c 258
 617 1525 l 258
 628 1525 635 1515 635 1505 c 256
 635 1310 431 1110 255 1110 c 256
929 1110 m 256
 753 1110 549 1310 549 1505 c 256
 549 1515 556 1525 567 1525 c 258
 617 1525 l 258
 626 1525 635 1515 635 1505 c 256
 635 1334 822 1215 929 1215 c 256
 939 1215 949 1207 949 1198 c 258
 949 1128 l 258
 949 1117 939 1110 929 1110 c 256
590 -20 m 256
 312 -20 110 175 110 480 c 256
 110 687 198 829 335 926 c 256
 338.747 928.623 343 930 347 930 c 256
 354 930 361.998 926.253 367 920 c 258
 416 856 l 258
 424 846 420 832 410 826 c 256
 313 765 235 651 235 480 c 256
 235 283 356 105 590 105 c 256
 824 105 945 283 945 480 c 256
 945 651 872 760 775 821 c 256
 765 827 761 841 769 851 c 257
 813 920 l 257
 817.956 926.195 825 930 832 930 c 256
 836 930 841.195 928.663 845 926 c 256
 982 829 1070 687 1070 480 c 256
 1070 175 868 -20 590 -20 c 256
EndSplineSet
EndChar

StartChar: uni19A6
Encoding: 6566 6566 124
GlifName: uni19A_6
Width: 1805
VWidth: 0
GlyphClass: 2
Flags: HW
LayerCount: 2
Back
SplineSet
494 -485 m 256
 494 -570 604 -595 710 -595 c 256
 996 -595 1310 -430 1310 -325 c 256
 1310 -250 1226 -210 1080 -210 c 256
 794 -210 494 -370 494 -485 c 256
380 -495 m 256
 380 -300 756 -105 1100 -105 c 256
 1304 -105 1424 -180 1424 -315 c 256
 1424 -508 1034 -700 690 -700 c 256
 526 -700 380 -638 380 -495 c 256
EndSplineSet
Refer: 66 6530 N 1 0 0 1 0 0 2
Fore
Refer: 39 -1 S 1 0 0 1 1525 0 2
Refer: 66 6530 N 1 0 0 1 0 0 2
EndChar

StartChar: uni199B
Encoding: 6555 6555 125
GlifName: uni199B_
Width: 1735
VWidth: 0
GlyphClass: 2
Flags: HW
LayerCount: 2
Back
SplineSet
459 -485 m 256
 459 -570 569 -595 675 -595 c 256
 961 -595 1275 -430 1275 -325 c 256
 1275 -250 1191 -210 1045 -210 c 256
 759 -210 459 -370 459 -485 c 256
345 -495 m 256
 345 -300 721 -105 1065 -105 c 256
 1269 -105 1389 -180 1389 -315 c 256
 1389 -508 999 -700 655 -700 c 256
 491 -700 345 -638 345 -495 c 256
EndSplineSet
Refer: 71 6560 N 1 0 0 1 0 0 2
Refer: 71 6560 N 1 0 0 1 0 0 2
Fore
Refer: 39 -1 N 1 0 0 1 1489 0 2
Refer: 71 6560 N 1 0 0 1 0 0 2
Refer: 71 6560 N 1 0 0 1 0 0 2
EndChar

StartChar: uni19D3
Encoding: 6611 6611 128
GlifName: uni19D_3
Width: 1145
VWidth: 0
GlyphClass: 2
Flags: W
LayerCount: 2
Back
Fore
SplineSet
550 105 m 256
 727 105 915 208 915 450 c 256
 915 679 752 805 540 805 c 256
 399 805 301 752 220 635 c 256
 213.146 625.1 200 621 190 629 c 257
 121 673 l 257
 111 681 107.788 694.418 115 705 c 256
 222 862 353 930 540 930 c 256
 845 930 1040 738 1040 450 c 256
 1040 146 816 -20 550 -20 c 256
 494.416 -20 446.416 -8 376 18 c 256
 366.433 21.5326 364.952 5.95842 371 -1 c 256
 514.416 -166 786.416 -430 1070 -618 c 256
 1077.45 -622.942 1082 -636 1075 -646 c 257
 997 -735 l 258
 991 -741 977.695 -739.402 971 -734 c 256
 750.416 -556 416.416 -218 121 112 c 256
 114.33 119.451 107 132 115 141 c 258
 161 196 l 258
 166 203 178.718 204.594 189 199 c 256
 286.416 146 437 104 550 105 c 256
EndSplineSet
EndChar

StartChar: uni1984
Encoding: 6532 6532 129
GlifName: uni1984
Width: 1735
VWidth: 0
GlyphClass: 2
Flags: HW
LayerCount: 2
Back
SplineSet
787 -220 m 260
 533 -220 405 -303 405 -425 c 260
 405 -547 532 -630 920 -630 c 260
 1469 -630 1550 -417 1550 -295 c 262
 1550 174 l 261
 1675 480 l 261
 1675 -295 l 262
 1675 -513 1518 -740 920 -740 c 260
 422 -740 295 -610 295 -425 c 260
 295 -233 463 -115 787 -115 c 260
 1110 -115 1255 -227.982421875 1255 -360 c 260
 1255 -451 1185.45019531 -556.026367188 954 -548 c 260
 943.05662737 -547.620499231 936 -546 937 -538 c 260
 938 -530 944 -500 944 -500 c 262
 945.294921875 -495.078125 948.347656409 -490.887678786 960 -491 c 260
 1098.99707031 -492.33984375 1155 -443.069335938 1155 -369 c 260
 1155 -284 1030 -220 787 -220 c 260
1253 -742 m 1
 1251.10839844 -737.833007812 1194 -728.192382812 1194 -728.192382812 c 1
 1194 -728.192382812 1179.85351562 -710.520507812 1180 -708 c 256
 1181.859375 -676.053710938 928 -435 885 -435 c 256
 803 -435 728 -740 606 -740 c 256
 522 -740 295 -473 295 -403 c 256
 295 -251 525 -115 863 -115 c 256
 1215 -115 1523 -362 1465 -713 c 256
 1462.06543531 -730.759175941 1466 -740 1449 -740 c 256
 1436 -740 1413 -740 1404 -740 c 256
 1394 -740 1388.01394294 -731.895914303 1390 -713 c 256
 1425 -380 1138 -220 863 -220 c 256
 617 -220 405 -316 405 -404 c 256
 405 -433 578 -656 606 -656 c 256
 692 -656 777 -340 885 -340 c 256
 978 -340 1265 -623 1265 -708 c 256
 1265 -733.873046875 1268.93164062 -754.392578125 1253 -742 c 1
EndSplineSet
Refer: 71 6560 N 1 0 0 1 0 0 2
Refer: 71 6560 N 1 0 0 1 0 0 2
Fore
SplineSet
982 -739 m 0
 967.676757812 -733.62890625 956 -724 944 -718 c 0
 935.561523438 -713.78125 939.9453125 -696.293945312 941 -694 c 256
 973.62109375 -623.047851562 980 -577 980 -539 c 0
 980 -453 923 -410 868 -410 c 256
 712 -410 788 -740 525 -740 c 256
 401 -740 295 -645 295 -485 c 256
 295 -263 447 -115 868 -115 c 256
 1296.20686583 -115 1440.21484375 -307 1440.21484375 -475 c 0
 1440.21484375 -563 1412.07324219 -638.94921875 1365 -713 c 256
 1355.34375 -728.190429688 1343.80273438 -743.584960938 1332 -740 c 256
 1319.41503906 -736.177734375 1294 -720 1285 -715 c 256
 1276.25878906 -710.143554688 1279.15136719 -704.8125 1288 -688 c 256
 1308 -650 1330.10839844 -587 1330.10839844 -505 c 0
 1330.10839844 -340 1186.62373572 -220 868 -220 c 256
 526 -220 405 -337 405 -485 c 256
 405 -584 457 -635 525 -635 c 256
 700 -635 629 -310 868 -310 c 256
 989.548828125 -310 1070 -406 1070 -508 c 0
 1070 -568 1047 -637 1015 -708 c 256
 1004.36914062 -731.587890625 990 -742 982 -739 c 0
EndSplineSet
Refer: 71 6560 N 1 0 0 1 0 0 2
Refer: 71 6560 N 1 0 0 1 0 0 2
EndChar

StartChar: uni199C
Encoding: 6556 6556 130
GlifName: uni199C_
Width: 1735
VWidth: 0
GlyphClass: 2
Flags: HW
LayerCount: 2
Back
SplineSet
110 450 m 256
 110 722 220 929 465 930 c 256
 497 930 534 925 565 912 c 256
 575 908 578 896 573 887 c 258
 527 808 l 258
 523 800 511 800 500 802 c 256
 491 804 476 805 465 805 c 256
 305 805 235 640 235 450 c 256
 235 220 362 105 508 105 c 256
 694 105 770 238 803 455 c 256
 839 689 912 930 1213 930 c 256
 1510 930 1625 672 1625 420 c 256
 1625 158 1495 -19 1250 -20 c 256
 1218 -20 1181 -15 1150 -2 c 256
 1140 2 1137 14 1142 23 c 258
 1188 102 l 258
 1192 110 1204 110 1215 108 c 256
 1224 106 1239 105 1250 105 c 256
 1410 105 1500 230 1500 420 c 256
 1500 610 1419 805 1213 805 c 256
 1024 805 961 639 933 455 c 256
 891 178 796 -20 508 -20 c 256
 261 -20 110 158 110 450 c 256
1320 -635 m 256
 1419 -635 1480 -557 1480 -395 c 258
 1480 152 l 257
 1605 480 l 257
 1605 -395 l 258
 1605 -623 1508 -740 1320 -740 c 256
 1149 -740 1084.11 -624.709 1040 -533 c 256
 988.604 -426.146 933.5 -315 815 -315 c 256
 702 -315 640 -398 640 -490 c 256
 640 -583 686 -665 840 -665 c 256
 849 -665 859 -679 859 -687 c 258
 859 -724 l 258
 859 -734 850 -740 840 -740 c 256
 604 -740 528.42 -638.007 530 -490 c 256
 531.729 -327.998 662 -215 815 -215 c 256
 995.5 -215 1055.97 -325.514 1104 -428 c 256
 1158.94 -545.246 1207 -635 1320 -635 c 256
EndSplineSet
Fore
SplineSet
110 450 m 256
 110 722 220 929 465 930 c 256
 497 930 534 925 565 912 c 256
 575 908 578 896 573 887 c 258
 527 808 l 258
 523 800 511 800 500 802 c 256
 491 804 476 805 465 805 c 256
 305 805 235 640 235 450 c 256
 235 220 362 105 508 105 c 256
 694 105 770 238 803 455 c 256
 839 689 912 930 1213 930 c 256
 1510 930 1625 672 1625 420 c 256
 1625 158 1495 -19 1250 -20 c 256
 1218 -20 1181 -15 1150 -2 c 256
 1140 2 1137 14 1142 23 c 258
 1188 102 l 258
 1192 110 1204 110 1215 108 c 256
 1224 106 1239 105 1250 105 c 256
 1410 105 1500 230 1500 420 c 256
 1500 610 1419 805 1213 805 c 256
 1024 805 961 639 933 455 c 256
 891 178 796 -20 508 -20 c 256
 261 -20 110 158 110 450 c 256
1090 -350 m 256
 1187 -350 1271 -279 1330 -110 c 256
 1336.5422503 -91.2603338929 1343.37988281 -82.4140625 1352 -85 c 256
 1372 -91 1384.88867188 -96 1393 -100 c 256
 1402.765625 -104.815429688 1404.31421959 -111.64933549 1399 -130 c 256
 1335 -351 1218 -450 1090 -450 c 256
 875 -450 805 -220 610 -220 c 256
 497 -220 405 -303 405 -435 c 256
 405 -577.240234375 497 -650.84375 610 -650.84375 c 0
 715.911132812 -650.84375 790 -578 831 -507 c 256
 837.500584136 -495.742890887 842.145194551 -492.402065103 850 -497 c 258
 891 -521 l 258
 895.783203125 -527.45703125 887.969726562 -540.336914062 882 -553 c 256
 849 -623 750 -740.799804688 590 -740.799804688 c 0
 424.633789062 -740.799804688 284.133789062 -646.297851562 285 -435 c 256
 285.91015625 -212.993164062 457 -115 610 -115 c 256
 840 -115 943 -350 1090 -350 c 256
EndSplineSet
EndChar

StartChar: uni19D2
Encoding: 6610 6610 131
GlifName: uni19D_2
Width: 1201
VWidth: 0
GlyphClass: 2
Flags: W
LayerCount: 2
Back
Fore
SplineSet
925.002 115 m 258
 925.999 649 l 258
 926.134 723.998 896.305 773 829.651 811.5 c 256
 821.482 816.219 817.762 824.133 826.999 829 c 258
 909.999 928 l 258
 915.488 934.548 923.735 925.536 933.999 920 c 256
 1014.65 876.5 1051.2 819.005 1051 703 c 258
 1050.15 123 l 258
 1049.48 -334.999 918.002 -740 505.002 -740 c 256
 279.002 -740 101.002 -562 60.002 -412 c 256
 57.002 -402 64.002 -390 74.002 -386 c 258
 106.002 -375 l 258
 114.002 -372 128.002 -380 131.002 -390 c 256
 173.002 -512 309.002 -635 505.002 -635 c 256
 816.002 -635 924.289 -267.02 925.002 115 c 258
EndSplineSet
EndChar

StartChar: uni19D5
Encoding: 6613 6613 132
GlifName: uni19D_5
Width: 1255
VWidth: 0
GlyphClass: 2
Flags: W
LayerCount: 2
Back
Fore
SplineSet
658.147 549.664 m 256
 658.147 539.667 649 528 640 528 c 258
 590 528 l 258
 579 528 572 538 572 548 c 256
 572 704 522 805 405 805 c 256
 301 805 245 713 245 624 c 256
 245 556 270.149 515 341 475 c 256
 350.257 469.773 342 452 334 448 c 257
 274 383 l 257
 265 378 254.131 378.558 245 384 c 256
 166.149 431 120 513 120 634 c 256
 120 780 220 930 405 930 c 256
 506.53 930 579.595 860.462 621.548 770.982 c 257
 666.611 861.185 756.912 930 845 930 c 256
 1089 930 1145 705 1145 161 c 256
 1145 -359 1021 -740 565 -740 c 256
 299 -740 140 -534 100 -412 c 256
 97 -402 104 -390 114 -386 c 258
 146 -375 l 258
 154 -372 167 -380 171 -390 c 256
 216 -490 329 -635 565 -635 c 256
 929 -635 1020 -296 1020 161 c 256
 1020 631 983 805 835 805 c 256
 721 805 658.147 703.664 658.147 549.664 c 256
EndSplineSet
EndChar

StartChar: uni19D4
Encoding: 6612 6612 133
GlifName: uni19D_4
Width: 1145
VWidth: 0
GlyphClass: 2
Flags: W
LayerCount: 2
Back
Fore
SplineSet
600 105 m 256
 713 104 835.606 136.191 961 219 c 256
 970.767 225.45 984 223 989 216 c 258
 1035 161 l 258
 1043 152 1035.12 139.909 1029 132 c 256
 767.606 -205.809 437.606 -535.809 219 -734 c 256
 212.627 -739.778 199 -741 193 -735 c 258
 115 -646 l 257
 108 -636 112.775 -623.272 120 -618 c 256
 391.606 -419.809 639.605 -173.809 783 -1 c 256
 788.887 6.09473 787.567 21.5322 778 18 c 256
 707.584 -8 655.584 -20 600 -20 c 256
 334 -20 110 146 110 450 c 256
 110 738 305 930 610 930 c 256
 797 930 928 862 1035 705 c 256
 1042.21 694.418 1039 681 1029 673 c 257
 960 629 l 257
 950 621 936.854 625.1 930 635 c 256
 849 752 751 805 610 805 c 256
 398 805 235 679 235 450 c 256
 235 208 423 105 600 105 c 256
EndSplineSet
EndChar

StartChar: uni19DA
Encoding: 6618 6618 134
GlifName: uni19D_A_
Width: 1589
VWidth: 0
GlyphClass: 2
Flags: W
LayerCount: 2
Back
Fore
SplineSet
565 803 m 256
 400 803 235 678 235 450 c 256
 235 250 305 105 455 105 c 256
 501 105 532 125 560 148 c 256
 568.639 155.097 583 150 587 142 c 258
 633 63 l 258
 638 54 633.643 44.4267 625 38 c 256
 586 9 527 -20 455 -20 c 256
 219.998 -20 110 178 110 450 c 256
 110 699 255 928 566 928 c 256
 847 928 952 814 1063 575 c 256
 1066.6 567.251 1076.71 562.447 1082 570 c 256
 1264 830 1374 1244 1384 1545 c 256
 1384 1556 1392 1570 1404 1570 c 258
 1499 1570 l 258
 1512 1570 1519.52 1552.98 1519 1545 c 256
 1497 1209 1390 814 1081 412 c 256
 1060.74 385.645 1006.81 393.62 993 431 c 256
 901 680 776 803 565 803 c 256
EndSplineSet
EndChar

StartChar: uni19DE
Encoding: 6622 6622 135
GlifName: uni19D_E_
Width: 1894
VWidth: 0
GlyphClass: 2
Flags: W
LayerCount: 2
Back
Fore
SplineSet
1117 105 m 256
 1374 105 1368 485 1329 830 c 256
 1275 1310 1307 1650 1584 1650 c 256
 1811 1650 1859 1460 1809 1230 c 256
 1807 1220 1801 1210 1792 1210 c 258
 1752 1211 l 258
 1741 1211 1734 1220 1734 1230 c 256
 1734 1389 1723 1555 1584 1555 c 256
 1418 1555 1405 1244 1454 830 c 256
 1506 386 1467 -20 1117 -20 c 256
 849 -20 819.576 180.352 765 455 c 256
 721.482 674 671 805 502 805 c 256
 306 805 235 610 235 420 c 256
 235 230 305 105 465 105 c 256
 476 105 491 106 500 108 c 256
 511 110 523 110 527 102 c 258
 573 23 l 258
 578 14 575 2 565 -2 c 256
 534 -15 497 -20 465 -20 c 256
 220 -19 110 158 110 420 c 256
 110 672 215 930 502 930 c 256
 783 930 840.482 717 890 455 c 256
 930.763 239.323 971 105 1117 105 c 256
EndSplineSet
EndChar

StartChar: uni19D7
Encoding: 6615 6615 136
GlifName: uni19D_7
Width: 1679
VWidth: 0
GlyphClass: 2
Flags: W
LayerCount: 2
Back
Fore
SplineSet
440 805 m 256
 325 805 235 708 235 460 c 256
 235 260 285 105 445 105 c 256
 456 105 471 106 480 108 c 256
 491 110 503 110 507 102 c 258
 553 23 l 258
 558 14 555 2 545 -2 c 256
 514 -15 477 -20 445 -20 c 256
 200 -19 110 188 110 460 c 256
 110 719 209 930 440 930 c 256
 632 930 718 730 718 550 c 257
 634 550 l 257
 634 684 550 805 440 805 c 256
1233 450 m 258
 1233 -250 l 258
 1233 -507 1254 -635 1373 -635 c 256
 1512 -635 1533 -483 1533 -294 c 256
 1533 -284 1540 -275 1551 -275 c 258
 1591 -275 l 258
 1600 -275 1606 -284 1608 -294 c 256
 1658 -544 1600 -740 1373 -740 c 256
 1175 -740 1108 -604 1108 -250 c 258
 1108 430 l 258
 1108.49 691.952 1050.32 805 920 805 c 256
 809 805 718 688 718 550 c 256
 718 540 710 530 701 530 c 258
 651 530 l 258
 640 530 633 540 633 550 c 256
 633 718 717 930 920 930 c 256
 1140.69 930 1229.33 779 1233 450 c 258
EndSplineSet
EndChar

StartChar: uni19D9
Encoding: 6617 6617 137
GlifName: uni19D_9
Width: 1126
VWidth: 0
GlyphClass: 2
Flags: W
LayerCount: 2
Back
Fore
SplineSet
625 -635 m 256
 911 -635 975 -440 1020 -290 c 256
 1023 -279 1037 -272 1045 -275 c 258
 1077 -286 l 258
 1087 -290 1093 -302 1091 -312 c 256
 1051 -484 942 -740 625 -740 c 256
 238 -740 110 -422 110 130 c 256
 110 673 291 930 570 930 c 256
 877 930 950 702 950 520 c 256
 950 348 870 151 625 150 c 256
 568 150 506 166 455 195 c 256
 446 200 442 211 447 220 c 258
 493 299 l 258
 497 307 511 310 520 305 c 256
 546 290 585 275 625 275 c 256
 785 275 825 420 825 520 c 256
 825 640 776 805 570 805 c 256
 358 805 235 593 235 130 c 256
 235 -360 359 -635 625 -635 c 256
EndSplineSet
EndChar

StartChar: uni19D6
Encoding: 6614 6614 138
GlifName: uni19D_6
Width: 1130
VWidth: 0
GlyphClass: 2
Flags: W
LayerCount: 2
Back
Fore
SplineSet
1010 275 m 256
 1010 110 895 -20 610 -20 c 256
 294 -20 130 201 130 790 c 256
 130 1413 272 1650 595 1650 c 256
 822 1650 951 1514 991 1382 c 256
 994.027 1372.01 987 1360 977 1356 c 258
 945 1345 l 258
 937 1342 924 1350 920 1360 c 256
 875 1460 781 1555 595 1555 c 256
 339 1555 255 1311 255 790 c 256
 255 287 382 105 610 105 c 256
 804 105 885 178 885 265 c 256
 885 347 824.07 398.099 729 465 c 256
 648 522 570 601 570 720 c 256
 570 853 648 930 790 930 c 256
 933 930 1010 815 1010 715 c 256
 1010 705 1004 697 994 696 c 257
 902 696 l 257
 894 695 880 706 880 715 c 256
 880 754 853 805 790 805 c 256
 728 805 695 763 695 720 c 256
 695 646 743.664 604.444 821 550 c 256
 946 462 1010 390 1010 275 c 256
EndSplineSet
EndChar

StartChar: uni19A7
Encoding: 6567 6567 140
GlifName: uni19A_7
Width: 1185
VWidth: 0
GlyphClass: 2
Flags: HW
LayerCount: 2
Back
Fore
SplineSet
524 460 m 256
 831 460 1045 277 1075 5 c 256
 1076 -5 1071 -10 1062 -10 c 258
 1019 -10 l 258
 1010 -10 1002 -6 1000 5 c 256
 955 220 780 355 524 355 c 256
 332 355 234 283 234 215 c 256
 234 122 382 90 519 90 c 256
 756 90 950 233 950 470 c 256
 950 699 796 805 564 805 c 256
 413 805 290 732 229 625 c 256
 223 614 209 611 199 619 c 258
 130 673 l 258
 120 681 117 694 124 705 c 256
 211 852 367 930 564 930 c 256
 899 930 1075 738 1075 470 c 256
 1075 186 865 -20 519 -20 c 256
 325 -20 124 52 124 215 c 256
 124 359 275 460 524 460 c 256
EndSplineSet
Refer: 39 -1 N 1 0 0 1 1213 0 2
EndChar

StartChar: uni19AA
Encoding: 6570 6570 141
GlifName: uni19A_A_
Width: 1786
VWidth: 0
GlyphClass: 2
Flags: HW
HStem: -700 105<657 853 657 862> -210 105<937 1153>
VStem: 380 114<-527.5 -427.5 -527.5 -397.5> 1310 114<-377.5 -287.5>
LayerCount: 2
Back
SplineSet
494 -485 m 256
 494 -570 604 -595 710 -595 c 256
 996 -595 1310 -430 1310 -325 c 256
 1310 -250 1226 -210 1080 -210 c 256
 794 -210 494 -370 494 -485 c 256
380 -495 m 256
 380 -300 756 -105 1100 -105 c 256
 1304 -105 1424 -180 1424 -315 c 256
 1424 -508 1034 -700 690 -700 c 256
 526 -700 380 -638 380 -495 c 256
EndSplineSet
Refer: 39 -1 S 1 0 0 1 0 0 2
Refer: 80 6537 N 1 0 0 1 0 0 2
Fore
Refer: 39 -1 N 1 0 0 1 1520 0 2
Refer: 80 6537 N 1 0 0 1 0 0 2
PickledDataWithLists: "(dp1
S'com.fontlab.hintData'
p2
(dp3
S'vhints'
p4
(lp5
(dp6
S'position'
p7
I380
sS'width'
p8
I114
sa(dp9
g7
I1310
sg8
I114
sasS'hhints'
p10
(lp11
(dp12
g7
I-700
sg8
I105
sa(dp13
g7
I-210
sg8
I105
sass."
EndChar

StartChar: uni19AB
Encoding: 6571 6571 142
GlifName: uni19A_B_
Width: 1250
VWidth: 0
GlyphClass: 2
Flags: HW
HStem: 70 85<742 742> 805 125<510.5 761> 1555 95<506.5 753>
VStem: 110 125<344.5 521 344.5 572.5> 135 125<978.659 1179.16 978.659 1206.16> 1010 71 1015 125<384 578.5>
LayerCount: 2
Back
Fore
SplineSet
744.5 69.5 m 256
 744 155 l 256
 933 156.5 1057 102.5 1160.02 -21.9873 c 256
 1166.42 -29.7295 1164.6 -36.8213 1156.97 -41.6016 c 258
 1120.54 -64.4404 l 258
 1112.91 -69.2207 1104.45 -69.6572 1096.47 -61.8223 c 256
 1003 30 897 68 744.5 69.5 c 256
655 1555 m 256
 358 1555 260 1308.32 260 1050 c 256
 260 907.318 270 795.318 283 717 c 257
 167 604 l 257
 152 705.318 135 860.028 135 1050 c 256
 135 1362.32 268 1650 655 1650 c 256
 882 1650 1041 1504 1081 1382 c 256
 1084 1372 1077 1360 1067 1356 c 258
 1035 1345 l 258
 1027 1342 1014 1350 1010 1360 c 256
 965 1460 851 1555 655 1555 c 256
1140 480 m 256
 1140 288 1007 71 742 70 c 256
 732 69.9619 722 78 722 87 c 258
 722 137 l 258
 722 148 732 155 742 155 c 256
 892 155 1015 270 1015 480 c 256
 1015 677 887 805 635 805 c 256
 386 805 235 622 235 420 c 256
 235 269 308 166 415 85 c 256
 425 78 428 66 421 55 c 257
 367 -14 l 257
 360 -25 345 -28 335 -20 c 256
 188 87 110 223 110 420 c 256
 110 725 347 930 635 930 c 256
 949 930 1140 766 1140 480 c 256
EndSplineSet
Refer: 39 -1 N 1 0 0 1 1246 0 2
PickledDataWithLists: "(dp1
S'com.fontlab.hintData'
p2
(dp3
S'vhints'
p4
(lp5
(dp6
S'position'
p7
I110
sS'width'
p8
I125
sa(dp9
g7
I135
sg8
I125
sa(dp10
g7
I1010
sg8
I71
sa(dp11
g7
I1015
sg8
I125
sasS'hhints'
p12
(lp13
(dp14
g7
I70
sg8
I85
sa(dp15
g7
I805
sg8
I125
sa(dp16
g7
I1555
sg8
I95
sass."
EndChar
